<svg width="24" height="25" viewBox="0 0 24 25" fill="none" xmlns="http://www.w3.org/2000/svg">
<path d="M11.4524 18.8368C11.4524 18.8368 11.4529 18.8371 12 18L12.5471 18.8371C12.2147 19.0543 11.7848 19.054 11.4524 18.8368Z" fill="#333333"/>
<path fill-rule="evenodd" clip-rule="evenodd" d="M11.4524 18.8368L12 18C12.5471 18.8371 12.5482 18.8363 12.5482 18.8363L12.55 18.8352L12.5553 18.8317L12.5728 18.8201C12.5875 18.8103 12.6082 18.7964 12.6346 18.7785C12.6873 18.7428 12.7624 18.691 12.8569 18.6242C13.0457 18.4906 13.3121 18.2963 13.6304 18.0482C14.2653 17.5533 15.1148 16.838 15.9679 15.9582C17.6294 14.2447 19.5 11.7082 19.5 8.8409C19.5 4.76342 16.1186 1.5 12 1.5C7.88137 1.5 4.5 4.76342 4.5 8.8409C4.5 11.7082 6.3706 14.2447 8.03208 15.9582C8.88516 16.838 9.73466 17.5533 10.3696 18.0482C10.6879 18.2963 10.9543 18.4906 11.1431 18.6242C11.2376 18.691 11.3127 18.7428 11.3654 18.7785C11.3918 18.7964 11.4125 18.8103 11.4272 18.8201L11.4447 18.8317L11.45 18.8352L11.4524 18.8368ZM9 9.5C9 7.84316 10.3432 6.5 12 6.5C13.6568 6.5 15 7.84316 15 9.5C15 11.1568 13.6568 12.5 12 12.5C10.3432 12.5 9 11.1568 9 9.5Z" fill="#333333"/>
<path d="M5.88675 16.5913C6.04545 17.1203 5.74527 17.6778 5.21628 17.8365C4.36346 18.0924 3.74616 18.3771 3.36438 18.6479C3.10179 18.8342 3.0263 18.9558 3.00582 19C3.02629 19.0441 3.10179 19.1658 3.36438 19.3521C3.74615 19.6228 4.36346 19.9076 5.21628 20.1635C6.90919 20.6713 9.30786 21 12 21C14.6921 21 17.0908 20.6713 18.7837 20.1635C19.6365 19.9076 20.2538 19.6228 20.6356 19.3521C20.8982 19.1658 20.9737 19.0441 20.9942 19C20.9737 18.9558 20.8982 18.8342 20.6356 18.6479C20.2538 18.3771 19.6365 18.0924 18.7837 17.8365C18.2547 17.6778 17.9545 17.1203 18.1132 16.5913C18.2719 16.0623 18.8294 15.7622 19.3584 15.9209C20.3152 16.2079 21.1624 16.5696 21.7927 17.0166C22.397 17.4452 23 18.101 23 19C23 19.899 22.397 20.5548 21.7927 20.9834C21.1624 21.4304 20.3152 21.7921 19.3584 22.0791C17.432 22.657 14.8307 23 12 23C9.16929 23 6.56796 22.657 4.64158 22.0791C3.68476 21.7921 2.8376 21.4304 2.20732 20.9834C1.60301 20.5548 1 19.899 1 19C1 18.101 1.60303 17.4452 2.20732 17.0166C2.8376 16.5696 3.68476 16.2079 4.64158 15.9209C5.17057 15.7622 5.72806 16.0623 5.88675 16.5913Z" fill="#333333"/>
</svg>
