<svg width="36" height="36" viewBox="0 0 36 36" fill="none" xmlns="http://www.w3.org/2000/svg">
<path fill-rule="evenodd" clip-rule="evenodd" d="M1.5 15.75C1.5 7.87997 7.87997 1.5 15.75 1.5C23.62 1.5 30 7.87997 30 15.75C30 19.1448 28.8129 22.2623 26.8312 24.7101L32.3406 30.2196C32.9264 30.8054 32.9264 31.7551 32.3406 32.3409C31.7549 32.9267 30.8051 32.9267 30.2193 32.3409L24.7098 26.8314C22.2621 28.813 19.1446 30 15.75 30C7.87997 30 1.5 23.62 1.5 15.75ZM15.75 4.5C9.53683 4.5 4.5 9.53683 4.5 15.75C4.5 21.9632 9.53683 27 15.75 27C21.9632 27 27 21.9632 27 15.75C27 9.53683 21.9632 4.5 15.75 4.5ZM10.4472 9.69663C11.8028 8.34108 13.6799 7.5 15.7505 7.5C17.8211 7.5 19.6982 8.34108 21.0537 9.69666C21.6395 10.2825 21.6395 11.2322 21.0537 11.818C20.468 12.4038 19.5182 12.4038 18.9324 11.818C18.1165 11.002 16.9935 10.5 15.7505 10.5C14.5075 10.5 13.3845 11.002 12.5684 11.818C11.9826 12.4038 11.0329 12.4038 10.4471 11.8179C9.86135 11.2321 9.86138 10.2824 10.4472 9.69663Z" fill="#999999"/>
</svg>
