<svg width="36" height="36" viewBox="0 0 36 36" fill="none" xmlns="http://www.w3.org/2000/svg">
<path fill-rule="evenodd" clip-rule="evenodd" d="M4.58579 4.58579C5.36684 3.80474 6.63317 3.80474 7.41421 4.58579L18 15.1716L28.5858 4.58579C29.3668 3.80474 30.6332 3.80474 31.4142 4.58579C32.1953 5.36684 32.1953 6.63317 31.4142 7.41421L20.8284 18L31.4142 28.5858C32.1953 29.3668 32.1953 30.6332 31.4142 31.4142C30.6332 32.1953 29.3668 32.1953 28.5858 31.4142L18 20.8284L7.41421 31.4142C6.63317 32.1953 5.36683 32.1953 4.58579 31.4142C3.80474 30.6332 3.80474 29.3668 4.58579 28.5858L15.1716 18L4.58579 7.41421C3.80474 6.63317 3.80474 5.36683 4.58579 4.58579Z" fill="#333333"/>
</svg>
