<svg width="192" height="192" viewBox="0 0 192 192" fill="none" xmlns="http://www.w3.org/2000/svg">
<path fill-rule="evenodd" clip-rule="evenodd" d="M96 192C149.019 192 192 149.019 192 96C192 42.9807 149.019 0 96 0C42.9807 0 0 42.9807 0 96C0 149.019 42.9807 192 96 192ZM96.2006 54C92.1282 54 88.8663 57.3744 89.0042 61.4444L90.6998 111.465C90.8003 114.43 93.2334 116.782 96.2006 116.782C99.1677 116.782 101.601 114.43 101.701 111.465L103.397 61.4444C103.535 57.3744 100.273 54 96.2006 54ZM96.2006 124.231C99.7267 124.231 102.585 127.089 102.585 130.615C102.585 134.142 99.7267 137 96.2006 137C92.6745 137 89.816 134.142 89.816 130.615C89.816 127.089 92.6745 124.231 96.2006 124.231Z" fill="#FF7715"/>
</svg>
