<svg width="48" height="48" viewBox="0 0 48 48" fill="none" xmlns="http://www.w3.org/2000/svg">
<path fill-rule="evenodd" clip-rule="evenodd" d="M27.8447 9.41541L29.7395 12.9189H37.4211C38.2895 12.9189 39 13.6243 39 14.4865C39 15.3486 38.2895 16.0541 37.4211 16.0541H35.0526V35.8649C35.0526 37.597 33.6395 39 31.8947 39H16.1053C14.3605 39 12.9474 37.597 12.9474 35.8649V16.0541H10.5789C9.71053 16.0541 9 15.3486 9 14.4865C9 13.6243 9.71053 12.9189 10.5789 12.9189H18.2684L20.2026 9.40757C20.3447 9.15676 20.6053 9 20.8974 9H27.1421C27.4342 9 27.7026 9.15676 27.8447 9.41541ZM15.9051 8.91892H10.5789C7.52872 8.91892 5 11.388 5 14.4865C5 17.01 6.67719 19.1159 8.94737 19.8107V35.8649C8.94737 39.8334 12.1787 43 16.1053 43H31.8947C35.8213 43 39.0526 39.8334 39.0526 35.8649V19.8107C41.3228 19.1159 43 17.01 43 14.4865C43 11.388 40.4713 8.91892 37.4211 8.91892H32.1237L31.3569 7.50093L31.3505 7.48931C30.5004 5.9421 28.8828 5 27.1421 5H20.8974C19.1281 5 17.5566 5.96352 16.7224 7.43574L16.7106 7.45661L15.9051 8.91892ZM26.3684 32.2203C26.3684 32.2596 26.3698 32.2988 26.3724 32.3378C26.4234 33.0929 26.9603 33.7854 27.7184 33.8897C28.6895 34.023 29.5263 33.2784 29.5263 32.3378V22.7162C29.5263 21.7757 28.6895 21.0311 27.7184 21.1643C26.9603 21.2687 26.4234 21.9611 26.3724 22.7162C26.3698 22.7553 26.3684 22.7945 26.3684 22.8338V32.2203ZM21.6316 22.7162C21.6316 21.7757 20.7947 21.0311 19.8237 21.1643C19.0655 21.2687 18.5286 21.9611 18.4777 22.7162C18.475 22.7553 18.4737 22.7945 18.4737 22.8338V32.2203C18.4737 32.2596 18.475 32.2988 18.4777 32.3378C18.5286 33.0929 19.0655 33.7854 19.8237 33.8897C20.7947 34.023 21.6316 33.2784 21.6316 32.3378V22.7162Z" fill="#999999"/>
</svg>
