<svg width="64" height="65" viewBox="0 0 64 65" fill="none" xmlns="http://www.w3.org/2000/svg">
<path d="M37.333 35.1439C37.333 38.0905 34.9463 40.4772 31.9997 40.4772C29.053 40.4772 26.6663 38.0905 26.6663 35.1439C26.6663 32.1972 29.053 29.8105 31.9997 29.8105C34.9463 29.8105 37.333 32.1972 37.333 35.1439ZM54.6663 21.8105V48.4772C54.6663 49.9439 53.4663 51.1439 51.9997 51.1439H11.9997C10.533 51.1439 9.33301 49.9439 9.33301 48.4772V21.8105C9.33301 20.3439 10.533 19.1439 11.9997 19.1439H20.533L22.6663 13.8105H41.333L43.4663 19.1439H51.9997C53.4663 19.1439 54.6663 20.3439 54.6663 21.8105ZM42.6663 35.1439C42.6663 29.2639 37.8797 24.4772 31.9997 24.4772C26.1197 24.4772 21.333 29.2639 21.333 35.1439C21.333 41.0239 26.1197 45.8105 31.9997 45.8105C37.8797 45.8105 42.6663 41.0239 42.6663 35.1439Z" fill="#999999"/>
</svg>
