<svg width="37" height="37" viewBox="0 0 37 37" fill="none" xmlns="http://www.w3.org/2000/svg">
<path fill-rule="evenodd" clip-rule="evenodd" d="M4.91391 25.5392C4.13286 24.7582 4.13286 23.4918 4.91391 22.7108L16.9139 10.7108C17.695 9.92974 18.9613 9.92974 19.7423 10.7108L31.7423 22.7108C32.5234 23.4918 32.5234 24.7582 31.7423 25.5392C30.9613 26.3203 29.695 26.3203 28.9139 25.5392L18.3281 14.9534L7.74234 25.5392C6.96129 26.3203 5.69496 26.3203 4.91391 25.5392Z" fill="#666666"/>
<path fill-rule="evenodd" clip-rule="evenodd" d="M4.91391 25.5392C4.13286 24.7582 4.13286 23.4918 4.91391 22.7108L16.9139 10.7108C17.695 9.92974 18.9613 9.92974 19.7423 10.7108L31.7423 22.7108C32.5234 23.4918 32.5234 24.7582 31.7423 25.5392C30.9613 26.3203 29.695 26.3203 28.9139 25.5392L18.3281 14.9534L7.74234 25.5392C6.96129 26.3203 5.69496 26.3203 4.91391 25.5392Z" fill="black" fill-opacity="0.2"/>
</svg>
