<svg width="36" height="37" viewBox="0 0 36 37" fill="none" xmlns="http://www.w3.org/2000/svg">
<path fill-rule="evenodd" clip-rule="evenodd" d="M31.4142 12.0858C32.1953 12.8668 32.1953 14.1332 31.4142 14.9142L19.4142 26.9142C18.6332 27.6953 17.3668 27.6953 16.5858 26.9142L4.58579 14.9142C3.80474 14.1332 3.80474 12.8668 4.58579 12.0858C5.36683 11.3047 6.63317 11.3047 7.41421 12.0858L18 22.6716L28.5858 12.0858C29.3668 11.3047 30.6332 11.3047 31.4142 12.0858Z" fill="#666666"/>
<path fill-rule="evenodd" clip-rule="evenodd" d="M31.4142 12.0858C32.1953 12.8668 32.1953 14.1332 31.4142 14.9142L19.4142 26.9142C18.6332 27.6953 17.3668 27.6953 16.5858 26.9142L4.58579 14.9142C3.80474 14.1332 3.80474 12.8668 4.58579 12.0858C5.36683 11.3047 6.63317 11.3047 7.41421 12.0858L18 22.6716L28.5858 12.0858C29.3668 11.3047 30.6332 11.3047 31.4142 12.0858Z" fill="black" fill-opacity="0.2"/>
</svg>
