<svg width="48" height="48" viewBox="0 0 48 48" fill="none" xmlns="http://www.w3.org/2000/svg">
<path fill-rule="evenodd" clip-rule="evenodd" d="M25.7227 4.88119L9 21.6245V32.9999H20.4076L37.1226 16.2746C39.0742 14.3218 39.0737 11.1568 37.1215 9.20459L32.796 4.87902C30.8425 2.92555 27.675 2.92652 25.7227 4.88119ZM28.5529 7.70788L13 23.2799V28.9999H18.75L34.2933 13.447C34.6836 13.0564 34.6835 12.4235 34.2931 12.033L29.9675 7.70744C29.5768 7.31675 28.9433 7.31694 28.5529 7.70788ZM8 37C6.89543 37 6 37.8954 6 39C6 40.1046 6.89543 41 8 41H40C41.1046 41 42 40.1046 42 39C42 37.8954 41.1046 37 40 37H8Z" fill="#333333"/>
</svg>
