<svg width="37" height="36" viewBox="0 0 37 36" fill="none" xmlns="http://www.w3.org/2000/svg">
<path fill-rule="evenodd" clip-rule="evenodd" d="M18.3281 36C28.2693 36 36.3281 27.9411 36.3281 18C36.3281 8.05887 28.2693 0 18.3281 0C8.387 0 0.328125 8.05887 0.328125 18C0.328125 27.9411 8.387 36 18.3281 36ZM13.7423 10.5858C12.9613 9.80474 11.695 9.80474 10.9139 10.5858C10.1329 11.3668 10.1329 12.6332 10.9139 13.4142L15.4997 18L10.9139 22.5858C10.1329 23.3668 10.1329 24.6332 10.9139 25.4142C11.695 26.1953 12.9613 26.1953 13.7423 25.4142L18.3281 20.8284L22.9139 25.4142C23.695 26.1953 24.9613 26.1953 25.7423 25.4142C26.5234 24.6332 26.5234 23.3668 25.7423 22.5858L21.1566 18L25.7423 13.4142C26.5234 12.6332 26.5234 11.3668 25.7423 10.5858C24.9613 9.80474 23.695 9.80474 22.9139 10.5858L18.3281 15.1716L13.7423 10.5858Z" fill="#999999"/>
</svg>
