<svg width="40" height="40" viewBox="0 0 40 40" fill="none" xmlns="http://www.w3.org/2000/svg">
<path d="M19.9997 3.33325C10.7997 3.33325 3.33301 10.7999 3.33301 19.9999C3.33301 29.1999 10.7997 36.6666 19.9997 36.6666C29.1997 36.6666 36.6663 29.1999 36.6663 19.9999C36.6663 10.7999 29.1997 3.33325 19.9997 3.33325ZM19.9997 32.2221C18.7775 32.2221 17.7775 31.2221 17.7775 29.9999C17.7775 28.7777 18.7775 27.7777 19.9997 27.7777C21.2219 27.7777 22.2219 28.7777 22.2219 29.9999C22.2219 31.2221 21.2219 32.2221 19.9997 32.2221ZM22.2219 23.3333C22.2219 24.5555 21.2219 25.5555 19.9997 25.5555C18.7775 25.5555 17.7775 24.5555 17.7775 23.3333V11.111C17.7775 9.88881 18.7775 8.88881 19.9997 8.88881C21.2219 8.88881 22.2219 9.88881 22.2219 11.111V23.3333Z" fill="white"/>
</svg>
