<svg width="37" height="37" viewBox="0 0 37 37" fill="none" xmlns="http://www.w3.org/2000/svg">
<path fill-rule="evenodd" clip-rule="evenodd" d="M31.7423 10.7108C32.5234 11.4918 32.5234 12.7582 31.7423 13.5392L19.7423 25.5392C18.9613 26.3203 17.695 26.3203 16.9139 25.5392L4.91391 13.5392C4.13286 12.7582 4.13286 11.4918 4.91391 10.7108C5.69496 9.92974 6.96129 9.92974 7.74234 10.7108L18.3281 21.2966L28.9139 10.7108C29.695 9.92974 30.9613 9.92974 31.7423 10.7108Z" fill="#666666"/>
<path fill-rule="evenodd" clip-rule="evenodd" d="M31.7423 10.7108C32.5234 11.4918 32.5234 12.7582 31.7423 13.5392L19.7423 25.5392C18.9613 26.3203 17.695 26.3203 16.9139 25.5392L4.91391 13.5392C4.13286 12.7582 4.13286 11.4918 4.91391 10.7108C5.69496 9.92974 6.96129 9.92974 7.74234 10.7108L18.3281 21.2966L28.9139 10.7108C29.695 9.92974 30.9613 9.92974 31.7423 10.7108Z" fill="black" fill-opacity="0.2"/>
</svg>
