<svg width="36" height="36" viewBox="0 0 36 36" fill="none" xmlns="http://www.w3.org/2000/svg">
<path fill-rule="evenodd" clip-rule="evenodd" d="M4.58579 26.4142C3.80474 25.6332 3.80474 24.3668 4.58579 23.5858L16.5858 11.5858C17.3668 10.8047 18.6332 10.8047 19.4142 11.5858L31.4142 23.5858C32.1953 24.3668 32.1953 25.6332 31.4142 26.4142C30.6332 27.1953 29.3668 27.1953 28.5858 26.4142L18 15.8284L7.41421 26.4142C6.63317 27.1953 5.36683 27.1953 4.58579 26.4142Z" fill="#666666"/>
<path fill-rule="evenodd" clip-rule="evenodd" d="M4.58579 26.4142C3.80474 25.6332 3.80474 24.3668 4.58579 23.5858L16.5858 11.5858C17.3668 10.8047 18.6332 10.8047 19.4142 11.5858L31.4142 23.5858C32.1953 24.3668 32.1953 25.6332 31.4142 26.4142C30.6332 27.1953 29.3668 27.1953 28.5858 26.4142L18 15.8284L7.41421 26.4142C6.63317 27.1953 5.36683 27.1953 4.58579 26.4142Z" fill="black" fill-opacity="0.2"/>
</svg>
