<svg width="24" height="25" viewBox="0 0 24 25" fill="none" xmlns="http://www.w3.org/2000/svg">
<path fill-rule="evenodd" clip-rule="evenodd" d="M7.5 4.21704C7.5 3.99268 7.68188 3.81079 7.90625 3.81079L20.0937 3.81079C20.3181 3.81079 20.5 3.99268 20.5 4.21704L20.5 16.4045C20.5 16.6289 20.3181 16.8108 20.0938 16.8108L18.5 16.8108L18.5 8.21704C18.5 6.88811 17.4227 5.81079 16.0937 5.81079L7.5 5.81079L7.5 4.21704ZM5.5 5.81079L5.5 4.21704C5.5 2.88811 6.57732 1.81079 7.90625 1.81079L20.0938 1.81079C21.4227 1.81079 22.5 2.88811 22.5 4.21704L22.5 16.4045C22.5 17.7335 21.4227 18.8108 20.0937 18.8108L18.5 18.8108L18.5 20.4045C18.5 21.7335 17.4227 22.8108 16.0938 22.8108L3.90625 22.8108C2.57732 22.8108 1.5 21.7335 1.5 20.4045L1.5 8.21704C1.5 6.88811 2.57731 5.81079 3.90625 5.81079L5.5 5.81079ZM3.5 8.21704C3.5 7.99268 3.68188 7.81079 3.90625 7.81079L16.0937 7.81079C16.3181 7.81079 16.5 7.99268 16.5 8.21704L16.5 20.4045C16.5 20.6289 16.3181 20.8108 16.0937 20.8108L3.90625 20.8108C3.68188 20.8108 3.5 20.6289 3.5 20.4045L3.5 8.21704Z" fill="#333333"/>
</svg>
