<svg width="20" height="21" viewBox="0 0 20 21" fill="none" xmlns="http://www.w3.org/2000/svg">
<path fill-rule="evenodd" clip-rule="evenodd" d="M0 7.13277L7.83132e-06 18.993C7.08151e-06 19.7208 0.590009 20.3108 1.31781 20.3108L13.178 20.3108C13.9058 20.3108 14.4958 19.7208 14.4958 18.993C14.4958 18.2652 13.9058 17.6752 13.178 17.6752L4.49927 17.6752L19.614 2.56042C20.1287 2.04579 20.1287 1.2114 19.614 0.696765C19.0994 0.182132 18.265 0.182133 17.7504 0.696767L2.63561 15.8115L2.63561 7.13277C2.63561 6.40497 2.0456 5.81497 1.3178 5.81497C0.59 5.81497 -6.66493e-07 6.40497 0 7.13277Z" fill="#333333"/>
</svg>
