<svg width="60" height="61" viewBox="0 0 60 61" fill="none" xmlns="http://www.w3.org/2000/svg">
<path d="M50 34.81V47.25H10V34.81C10.39 34.91 10.79 34.97 11.21 34.97H11.22H17.27L17.3 35.06L17.93 36.92C18.68 39.11 20.75 40.58 23.07 40.58H36.94C39.28 40.58 41.35 39.1 42.09 36.91L42.72 35.07L42.75 34.98H48.8C49.2 34.96 49.61 34.91 50 34.81ZM40.94 9.25H19.06C16.61 9.25 14.4 10.71 13.5 12.94L6.22 30.74C6.07 31.09 6 31.45 6 31.83V48.32C6 49.93 7.35 51.25 9 51.25H51C52.65 51.25 54 49.93 54 48.32V31.82C54 31.45 53.93 31.08 53.78 30.73L46.5 12.93C45.6 10.71 43.39 9.25 40.94 9.25ZM11.21 30.96C10.7 30.96 10.36 30.46 10.55 30L16.89 14.5C17.33 13.43 18.38 12.73 19.56 12.73H40.46C41.63 12.73 42.69 13.43 43.12 14.49L49.46 29.99C49.65 30.45 49.3 30.95 48.8 30.95H40.92C40.3 30.95 39.76 31.34 39.56 31.91L38.93 33.75L38.3 35.59C38.11 36.16 37.56 36.55 36.94 36.55H23.07C22.45 36.55 21.91 36.16 21.71 35.59L21.08 33.75L20.45 31.91C20.26 31.34 19.71 30.95 19.09 30.95H11.21C11.21 30.96 11.21 30.96 11.21 30.96Z" fill="#333333"/>
</svg>
