<svg width="60" height="61" viewBox="0 0 60 61" fill="none" xmlns="http://www.w3.org/2000/svg">
<path fill-rule="evenodd" clip-rule="evenodd" d="M19.2705 7.25C19.2705 6.14543 20.1659 5.25 21.2705 5.25H37.7029C38.8075 5.25 39.7029 6.14543 39.7029 7.25V8.25H46.625C49.0004 8.25 51 10.1456 51 12.5743V50.9257C51 53.3544 49.0004 55.25 46.625 55.25H13.375C10.9997 55.25 9 53.3544 9 50.9257V12.5743C9 10.1456 10.9996 8.25 13.375 8.25H19.2705V7.25ZM19.2705 14.25V12.25H13.375C13.127 12.25 13 12.4357 13 12.5743V50.9257C13 51.0644 13.127 51.25 13.375 51.25H46.625C46.873 51.25 47 51.0644 47 50.9257V12.5743C47 12.4356 46.873 12.25 46.625 12.25H40.3125V13.7365C40.3125 14.4942 39.8912 15.1534 39.27 15.4928C38.9036 15.9542 38.3378 16.25 37.7029 16.25H21.2705C20.1659 16.25 19.2705 15.3546 19.2705 14.25ZM35.7029 9.25V11.7365H23.6875V10.25C23.6875 9.88571 23.5901 9.54417 23.4199 9.25H35.7029ZM34.8347 25.6282C35.5959 24.8277 35.564 23.5618 34.7636 22.8006C33.9631 22.0395 32.6972 22.0714 31.936 22.8718L22.9023 32.3722C22.3511 32.9518 22.1983 33.8039 22.5136 34.5389C22.829 35.2739 23.5518 35.7504 24.3516 35.7504H30.9854L25.1616 41.8714C24.4002 42.6716 24.4317 43.9376 25.2319 44.699C26.0321 45.4603 27.2981 45.4288 28.0595 44.6286L37.0979 35.129C37.6492 34.5495 37.8023 33.6972 37.487 32.9621C37.1717 32.2269 36.4488 31.7504 35.6489 31.7504H29.0132L34.8347 25.6282Z" fill="#333333"/>
</svg>
