<svg width="60" height="61" viewBox="0 0 60 61" fill="none" xmlns="http://www.w3.org/2000/svg">
<path fill-rule="evenodd" clip-rule="evenodd" d="M43.2954 9.48524C42.88 8.48146 41.7393 7.99281 40.7261 8.3846L12.6264 19.25H7C5.89543 19.25 5 20.1454 5 21.25V28C5 29.1046 5.89543 30 7 30C8.31058 30 9.54977 30.4301 10.4314 31.1967C11.273 31.9285 11.9 33.0583 11.9 34.75C11.9 36.4418 11.273 37.5715 10.4314 38.3033C9.54986 39.0699 8.31069 39.5 7 39.5C5.89543 39.5 5 40.3954 5 41.5V48.25C5 49.3546 5.89543 50.25 7 50.25H53C54.1046 50.25 55 49.3546 55 48.25V41.5C55 40.3954 54.1046 39.5 53 39.5C51.9177 39.5 50.6867 38.9551 49.693 37.929C48.71 36.9139 48.1 35.5685 48.1 34.1875C48.1 31.7171 50.2533 30 53 30C54.1046 30 55 29.1046 55 28V21.25C55 20.1454 54.1046 19.25 53 19.25H47.3364L43.2954 9.48524ZM45.9547 23.25C45.9851 23.2507 46.0155 23.2507 46.046 23.25H51V26.2094C47.4602 26.9489 44.1 29.6402 44.1 34.1875C44.1 36.744 45.215 39.0548 46.8195 40.7117C47.9537 41.8828 49.4044 42.7991 51 43.2302V46.25H9V43.2954C10.4661 42.9914 11.881 42.3436 13.0562 41.3217C14.8021 39.8035 15.9 37.5582 15.9 34.75C15.9 31.9417 14.802 29.6965 13.0561 28.1783C11.8809 27.1564 10.4661 26.5087 9 26.2046V23.25H12.9537C12.9845 23.2507 13.0154 23.2507 13.0463 23.25H45.9547ZM43.0074 19.25L40.3465 12.82L23.7174 19.25H43.0074ZM20 31.25C20 30.1454 20.8954 29.25 22 29.25H29C30.1046 29.25 31 30.1454 31 31.25C31 32.3546 30.1046 33.25 29 33.25H22C20.8954 33.25 20 32.3546 20 31.25ZM22 36.25C20.8954 36.25 20 37.1454 20 38.25C20 39.3546 20.8954 40.25 22 40.25H38C39.1046 40.25 40 39.3546 40 38.25C40 37.1454 39.1046 36.25 38 36.25H22Z" fill="#333333"/>
</svg>
