<svg width="60" height="61" viewBox="0 0 60 61" fill="none" xmlns="http://www.w3.org/2000/svg">
<path fill-rule="evenodd" clip-rule="evenodd" d="M6 10.25C6 9.14543 6.89543 8.25 8 8.25H43C44.1046 8.25 45 9.14543 45 10.25V26.25H52C53.1046 26.25 54 27.1454 54 28.25V45.9342C54 47.0388 53.1046 47.9342 52 47.9342H47.3815L44.6962 50.6549C44.3204 51.0357 43.8077 51.25 43.2727 51.25C42.7378 51.25 42.2251 51.0357 41.8493 50.6549L39.1639 47.9342H28C26.8954 47.9342 26 47.0388 26 45.9342V38.8214H23.0543L19.2665 42.6556C18.8908 43.0359 18.3784 43.25 17.8438 43.25C17.3091 43.25 16.7967 43.0359 16.421 42.6556L12.6332 38.8214H8C6.89543 38.8214 6 37.926 6 36.8214V10.25ZM10 12.25V34.8214H13.4688C14.0034 34.8214 14.5158 35.0355 14.8915 35.4158L17.8438 38.4042L20.796 35.4158C21.1717 35.0355 21.6841 34.8214 22.2188 34.8214H41V12.25H10ZM45.2727 30.25V37.0921C45.2727 38.1967 44.3773 39.0921 43.2727 39.0921H30V43.9342H40C40.535 43.9342 41.0476 44.1485 41.4234 44.5293L43.2727 46.4029L45.122 44.5293C45.4978 44.1485 46.0105 43.9342 46.5455 43.9342H50V30.25H45.2727ZM24 21.25C22.8954 21.25 22 22.1454 22 23.25C22 24.3546 22.8954 25.25 24 25.25H26C27.1046 25.25 28 24.3546 28 23.25C28 22.1454 27.1046 21.25 26 21.25H24ZM30 23.25C30 22.1454 30.8954 21.25 32 21.25H33C34.1046 21.25 35 22.1454 35 23.25C35 24.3546 34.1046 25.25 33 25.25H32C30.8954 25.25 30 24.3546 30 23.25ZM17 21.25C15.8954 21.25 15 22.1454 15 23.25C15 24.3546 15.8954 25.25 17 25.25H18C19.1046 25.25 20 24.3546 20 23.25C20 22.1454 19.1046 21.25 18 21.25H17Z" fill="#333333"/>
</svg>
