<svg width="60" height="61" viewBox="0 0 60 61" fill="none" xmlns="http://www.w3.org/2000/svg">
<path fill-rule="evenodd" clip-rule="evenodd" d="M15.0057 11.3195C15.0025 11.327 15 11.3359 15 11.35V47.9821L29.09 40.7827C29.6615 40.4907 30.3385 40.4907 30.91 40.7827L45 47.9821V11.35C45 11.3359 44.9975 11.327 44.9943 11.3195C44.9905 11.3106 44.9835 11.2992 44.9718 11.2876C44.9489 11.265 44.9178 11.25 44.875 11.25H15.125C15.0822 11.25 15.0512 11.265 15.0282 11.2876C15.0165 11.2992 15.0095 11.3106 15.0057 11.3195ZM11 11.35C11 9.06338 12.8692 7.25 15.125 7.25H44.875C47.1308 7.25 49 9.0634 49 11.35V51.25C49 51.9463 48.6379 52.5924 48.044 52.9559C47.4502 53.3193 46.71 53.3478 46.09 53.031L30 44.8096L13.91 53.031C13.29 53.3478 12.5498 53.3193 11.956 52.9559C11.3621 52.5924 11 51.9463 11 51.25V11.35ZM30 17.25C31.1046 17.25 32 18.1454 32 19.25V24.25H36C37.1046 24.25 38 25.1454 38 26.25C38 27.3546 37.1046 28.25 36 28.25H32V32.25C32 33.3546 31.1046 34.25 30 34.25C28.8954 34.25 28 33.3546 28 32.25V28.25H24C22.8954 28.25 22 27.3546 22 26.25C22 25.1454 22.8954 24.25 24 24.25H28V19.25C28 18.1454 28.8954 17.25 30 17.25Z" fill="#333333"/>
</svg>
