<svg width="60" height="61" viewBox="0 0 60 61" fill="none" xmlns="http://www.w3.org/2000/svg">
<path fill-rule="evenodd" clip-rule="evenodd" d="M11.333 32.3541C11.333 29.4086 13.7208 27.0208 16.6663 27.0208H43.333C46.2785 27.0208 48.6663 29.4086 48.6663 32.3541V45.6875C48.6663 48.633 46.2785 51.0208 43.333 51.0208H16.6663C13.7208 51.0208 11.333 48.633 11.333 45.6875V32.3541ZM16.6663 31.0208C15.93 31.0208 15.333 31.6177 15.333 32.3541V45.6875C15.333 46.4238 15.93 47.0208 16.6663 47.0208H43.333C44.0694 47.0208 44.6663 46.4238 44.6663 45.6875V32.3541C44.6663 31.6177 44.0694 31.0208 43.333 31.0208H16.6663Z" fill="#333333"/>
<path fill-rule="evenodd" clip-rule="evenodd" d="M19.6663 20.6875C19.6663 14.9805 24.2927 10.3541 29.9997 10.3541C35.7066 10.3541 40.333 14.9805 40.333 20.6875V27.5056C40.333 29.447 38.7592 31.0208 36.8179 31.0208H23.1815C21.2401 31.0208 19.6663 29.447 19.6663 27.5056V20.6875ZM29.9997 14.3541C26.5019 14.3541 23.6663 17.1897 23.6663 20.6875V27.0208H36.333V20.6875C36.333 17.1897 33.4975 14.3541 29.9997 14.3541Z" fill="#333333"/>
</svg>
