<svg width="48" height="49" viewBox="0 0 48 49" fill="none" xmlns="http://www.w3.org/2000/svg">
<g clip-path="url(#clip0_4966_159808)">
<path d="M36.35 23.5H35V16.5C35 10.43 30.07 5.5 24 5.5C17.93 5.5 13 10.43 13 16.5V23.5H11.65C10.74 23.5 10 24.31 10 25.3V41.7C10 42.69 10.74 43.5 11.65 43.5H36.36C37.27 43.5 38.01 42.69 38.01 41.7V25.3C38 24.31 37.26 23.5 36.35 23.5ZM26 35.5C26 36.6 25.1 37.5 24 37.5C22.9 37.5 22 36.6 22 35.5V31.5C22 30.4 22.9 29.5 24 29.5C25.1 29.5 26 30.4 26 31.5V35.5ZM31 23.5H17V16.5C17 12.64 20.14 9.5 24 9.5C27.86 9.5 31 12.64 31 16.5V23.5Z" fill="#999999"/>
</g>
<defs>
<clipPath id="clip0_4966_159808">
<rect width="28" height="38" fill="white" transform="translate(10 5.5)"/>
</clipPath>
</defs>
</svg>
