<svg width="80" height="81" viewBox="0 0 80 81" fill="none" xmlns="http://www.w3.org/2000/svg">
<path fill-rule="evenodd" clip-rule="evenodd" d="M35.0003 9.83325C34.3316 9.83325 33.7072 10.1675 33.3362 10.7239L30.5966 14.8333H21.667C20.5624 14.8333 19.667 15.7287 19.667 16.8333V41.8333C19.667 42.9378 20.5624 43.8333 21.667 43.8333H58.3337C59.4382 43.8333 60.3337 42.9378 60.3337 41.8333V16.8333C60.3337 15.7287 59.4382 14.8333 58.3337 14.8333H49.404L46.6644 10.7239C46.2935 10.1675 45.669 9.83325 45.0003 9.83325H35.0003ZM33.3311 17.9427L36.0707 13.8333H43.93L46.6696 17.9427C47.0405 18.499 47.665 18.8333 48.3337 18.8333H56.3337V39.8333H23.667V18.8333H31.667C32.3357 18.8333 32.9602 18.499 33.3311 17.9427ZM34.7472 57.0855C33.9662 56.3045 32.6998 56.3045 31.9188 57.0855C31.1377 57.8666 31.1377 59.1329 31.9188 59.914L34.9812 62.9764C27.9223 62.4401 21.4232 60.8022 16.4437 58.4734C13.3717 57.0366 10.9632 55.3767 9.34863 53.6298C7.74194 51.8915 7 50.1617 7 48.4999C7 45.7022 8.85618 42.7711 12.7747 40.1633C13.6943 39.5513 13.9436 38.3098 13.3317 37.3902C12.7197 36.4707 11.4782 36.2213 10.5586 36.8333C6.10502 39.7971 3 43.792 3 48.4999C3 51.4405 4.33187 54.0952 6.4112 56.3448C8.4826 58.5859 11.3724 60.5174 14.7491 62.0967C20.3817 64.731 27.6062 66.4965 35.3266 67.011L31.9188 70.4189C31.1377 71.1999 31.1377 72.4663 31.9188 73.2473C32.6998 74.0284 33.9662 74.0284 34.7472 73.2473L41.3873 66.6072C41.765 66.2434 42 65.7324 42 65.1666C42 64.6068 41.77 64.1007 41.3994 63.7377L34.7472 57.0855ZM66.6683 37.3902C67.2803 36.4706 68.5219 36.2213 69.4414 36.8333C73.8949 39.7971 77 43.792 77 48.4999C77 52.9312 73.8246 56.6317 69.6949 59.3996C65.4848 62.2215 59.8151 64.4109 53.7602 65.7337C52.6811 65.9694 51.6152 65.2857 51.3794 64.2066C51.1437 63.1275 51.8274 62.0616 52.9065 61.8258C58.6243 60.5767 63.7879 58.5435 67.4679 56.0769C71.2284 53.5565 73 50.903 73 48.4999C73 45.7022 71.1438 42.7711 67.2253 40.1632C66.3057 39.5513 66.0564 38.3097 66.6683 37.3902ZM40 21.4998C36.1339 21.4998 33 24.6337 33 28.4998C33 32.3658 36.1339 35.4998 40 35.4998C43.8661 35.4998 47 32.3658 47 28.4998C47 24.6337 43.8661 21.4998 40 21.4998ZM37 28.4998C37 26.8428 38.3431 25.4998 40 25.4998C41.6569 25.4998 43 26.8428 43 28.4998C43 30.1567 41.6569 31.4998 40 31.4998C38.3431 31.4998 37 30.1567 37 28.4998Z" fill="white"/>
</svg>
