<svg width="91" height="91" viewBox="0 0 91 91" fill="none" xmlns="http://www.w3.org/2000/svg">
<path fill-rule="evenodd" clip-rule="evenodd" d="M81.4804 18.1264L40.2004 7.47638C35.0604 6.14638 29.7904 9.25638 28.4604 14.3964L28.4504 14.4364L9.91038 16.8264C7.36038 17.1464 5.09038 18.4464 3.51038 20.4864C1.93038 22.5264 1.25038 25.0564 1.58038 27.6164L5.94038 61.5164C6.57038 66.3664 10.7204 69.9264 15.4904 69.9264C15.9004 69.9264 16.3104 69.8964 16.7304 69.8464L19.6204 69.4764C20.7504 70.4964 22.1204 71.2364 23.6404 71.6264L64.9204 82.2864C65.7204 82.4964 66.5404 82.5964 67.3504 82.5964C69.0504 82.5964 70.7304 82.1464 72.2304 81.2564C74.4504 79.9464 76.0204 77.8564 76.6704 75.3664L88.4004 29.8664C89.7304 24.7264 86.6204 19.4564 81.4804 18.1264ZM16.2204 65.8764C13.1404 66.2764 10.3104 64.0864 9.91038 61.0064L5.55038 27.1064C5.36038 25.6064 5.76038 24.1264 6.68038 22.9364C7.60038 21.7464 8.93038 20.9864 10.4204 20.7964L27.3704 18.6164L16.7204 59.8864C16.2104 61.8664 16.3404 63.9064 17.0704 65.7664L16.2204 65.8764ZM84.5304 28.8664L72.7904 74.3564C72.4104 75.8164 71.4904 77.0364 70.1904 77.8064C68.8904 78.5664 67.3804 78.7864 65.9204 78.4064L24.6404 67.7464C23.1804 67.3664 21.9604 66.4464 21.1904 65.1564C20.4204 63.8564 20.2104 62.3464 20.5904 60.8864L32.3304 15.3964C32.9904 12.8564 35.2804 11.1664 37.7904 11.1664C38.2604 11.1664 38.7304 11.2264 39.2004 11.3464L80.4804 22.0064C83.4904 22.7764 85.3004 25.8564 84.5304 28.8664ZM66.8304 33.0363L45.8004 27.6063C44.7204 27.3263 43.6004 27.4863 42.6404 28.0563C41.6804 28.6263 41.0004 29.5263 40.7204 30.6063L35.2904 51.6363C35.0104 52.7163 35.1704 53.8363 35.7404 54.7963C36.3104 55.7563 37.2104 56.4363 38.2904 56.7163L39.3304 56.9863L58.0704 61.8263L59.3104 62.1463C59.6604 62.2363 60.0104 62.2763 60.3604 62.2763C61.1004 62.2763 61.8204 62.0763 62.4704 61.6963C63.4304 61.1263 64.1104 60.2263 64.3904 59.1463L69.8204 38.1163C70.4004 35.8963 69.0604 33.6163 66.8304 33.0363ZM48.0604 55.1063L55.4704 49.1563L58.7104 57.8563L55.4404 57.0163L48.0604 55.1063ZM61.5704 54.0863L58.9504 47.0463C58.5704 46.0063 57.7004 45.2163 56.6404 44.9263C55.5704 44.6363 54.4204 44.8663 53.5604 45.5663L43.2204 53.8663L39.2804 52.8463C39.2004 52.8263 39.1404 52.7163 39.1604 52.6363L44.5904 31.6063C44.6104 31.5363 44.6904 31.4763 44.7704 31.4763H44.8004L65.8304 36.9063C65.9104 36.9263 65.9704 37.0363 65.9504 37.1163L61.5704 54.0863ZM43.9906 38.1864C44.7706 35.1864 47.8406 33.3664 50.8406 34.1464C53.8406 34.9164 55.6506 37.9864 54.8706 40.9964C54.4906 42.4564 53.5706 43.6764 52.2806 44.4364C51.4106 44.9564 50.4306 45.2164 49.4406 45.2164C48.9706 45.2164 48.5006 45.1564 48.0306 45.0364C46.5706 44.6564 45.3506 43.7364 44.5906 42.4464C43.8306 41.1564 43.6106 39.6364 43.9906 38.1864ZM50.2606 40.9764C50.6406 40.7564 50.9006 40.4064 51.0106 39.9864C51.2306 39.1264 50.7106 38.2364 49.8406 37.9964C49.7106 37.9664 49.5706 37.9464 49.4406 37.9464C48.7206 37.9464 48.0606 38.4364 47.8706 39.1664C47.7606 39.5864 47.8206 40.0264 48.0406 40.3964C48.2606 40.7764 48.6106 41.0364 49.0306 41.1464C49.4506 41.2564 49.8906 41.1964 50.2606 40.9764Z" fill="white"/>
</svg>
