<svg width="48" height="49" viewBox="0 0 48 49" fill="none" xmlns="http://www.w3.org/2000/svg">
<path d="M36.35 23.5H17V16.1C17 12.7 19.73 9.87997 23.37 9.52997C27.04 9.16997 30.33 11.45 31.05 14.8C31.28 15.88 32.35 16.57 33.43 16.34C34.51 16.11 35.2 15.05 34.97 13.96C33.82 8.61997 28.65 5.00997 23 5.54997C17.29 6.09997 12.99 10.63 13 16.1V23.5H11.65C10.74 23.5 10 24.31 10 25.3V41.7C10 42.7 10.74 43.5 11.65 43.5H36.36C37.26 43.5 38 42.7 38 41.7V25.3C38 24.31 37.26 23.5 36.35 23.5ZM26 35.5C26 36.6 25.1 37.5 24 37.5C22.9 37.5 22 36.6 22 35.5V31.5C22 30.4 22.9 29.5 24 29.5C25.1 29.5 26 30.4 26 31.5V35.5Z" fill="#999999"/>
</svg>
