<svg width="48" height="49" viewBox="0 0 48 49" fill="none" xmlns="http://www.w3.org/2000/svg">
<path d="M42.36 13.99L37.86 31.99C37.64 32.88 36.84 33.5 35.92 33.5H14.81C13.89 33.5 13.09 32.88 12.87 31.99L8.37 13.99C8.28 13.63 8.29 13.27 8.39 12.93L8.04 11.5H7C5.9 11.5 5 10.6 5 9.5C5 8.4 5.9 7.5 7 7.5H9.6C10.52 7.5 11.32 8.12 11.54 9.02L12.16 11.5H40.42C41.04 11.5 41.62 11.78 42 12.27C42.38 12.76 42.51 13.39 42.36 13.99ZM33.5 34.5C31.57 34.5 30 36.07 30 38C30 39.93 31.57 41.5 33.5 41.5C35.43 41.5 37 39.93 37 38C37 36.07 35.43 34.5 33.5 34.5ZM17.5 34.5C15.57 34.5 14 36.07 14 38C14 39.93 15.57 41.5 17.5 41.5C19.43 41.5 21 39.93 21 38C21 36.07 19.43 34.5 17.5 34.5Z" fill="#FF5934"/>
</svg>
