<svg width="37" height="37" viewBox="0 0 37 37" fill="none" xmlns="http://www.w3.org/2000/svg">
<path fill-rule="evenodd" clip-rule="evenodd" d="M18.6934 1.8125C12.5154 1.8125 7.44336 6.70763 7.44336 12.8239C7.44336 17.1248 10.2493 20.9296 12.7415 23.4999C14.0211 24.8195 15.2954 25.8925 16.2478 26.6348C16.7252 27.007 17.1249 27.2985 17.4081 27.4988C17.5497 27.5991 17.6625 27.6766 17.7415 27.7303C17.781 27.7571 17.8121 27.7779 17.8342 27.7926L17.8604 27.81L17.8684 27.8153L17.872 27.8176C18.3705 28.1435 19.0162 28.1435 19.5147 27.8176L19.5184 27.8153L19.5263 27.81L19.5526 27.7926C19.5746 27.7779 19.6057 27.7571 19.6452 27.7303C19.7242 27.6766 19.837 27.5991 19.9787 27.4988C20.2618 27.2985 20.6615 27.007 21.139 26.6348C22.0914 25.8925 23.3656 24.8195 24.6452 23.4999C27.1375 20.9296 29.9434 17.1248 29.9434 12.8239C29.9434 6.70763 24.8713 1.8125 18.6934 1.8125ZM19.5147 27.8176L18.6934 26.5625C19.514 27.8181 19.5143 27.8179 19.5147 27.8176ZM18.6934 26.5625L17.872 27.8176C17.8724 27.8179 17.8728 27.8181 18.6934 26.5625ZM18.6934 7.8125C15.7939 7.8125 13.4434 10.163 13.4434 13.0625C13.4434 15.962 15.7939 18.3125 18.6934 18.3125C21.5928 18.3125 23.9434 15.962 23.9434 13.0625C23.9434 10.163 21.5928 7.8125 18.6934 7.8125ZM8.51778 26.3173C9.31127 26.0792 9.76154 25.243 9.52349 24.4495C9.28544 23.656 8.44921 23.2057 7.65573 23.4438C6.2205 23.8744 4.94976 24.4168 4.00434 25.0874C3.0979 25.7303 2.19336 26.7139 2.19336 28.0625C2.19336 29.411 3.09788 30.3946 4.00434 31.0376C4.94976 31.7081 6.2205 32.2506 7.65573 32.6812C10.5453 33.5481 14.4473 34.0625 18.6934 34.0625C22.9394 34.0625 26.8414 33.5481 29.731 32.6812C31.1662 32.2506 32.437 31.7081 33.3824 31.0376C34.2888 30.3946 35.1934 29.411 35.1934 28.0625C35.1934 26.7139 34.2888 25.7303 33.3824 25.0874C32.4369 24.4168 31.1662 23.8744 29.731 23.4438C28.9375 23.2057 28.1012 23.656 27.8632 24.4495C27.6251 25.243 28.0754 26.0792 28.8689 26.3173C30.1482 26.701 31.0741 27.1282 31.6468 27.5344C32.0407 27.8138 32.1539 27.9962 32.1846 28.0625C32.1539 28.1287 32.0407 28.3112 31.6468 28.5906C31.0741 28.9968 30.1482 29.4239 28.8689 29.8077C26.3296 30.5695 22.7316 31.0625 18.6934 31.0625C14.6551 31.0625 11.0571 30.5695 8.51778 29.8077C7.23854 29.4239 6.31259 28.9968 5.73993 28.5906C5.34604 28.3112 5.2328 28.1287 5.20209 28.0625C5.2328 27.9962 5.34605 27.8138 5.73993 27.5344C6.31259 27.1282 7.23855 26.701 8.51778 26.3173Z" fill="#333333"/>
</svg>
