<svg width="64" height="64" viewBox="0 0 64 64" fill="none" xmlns="http://www.w3.org/2000/svg">
<path fill-rule="evenodd" clip-rule="evenodd" d="M15.3585 15.6C15.1397 15.6 14.9623 15.7791 14.9623 16V52.6C14.9623 52.8209 15.1396 53 15.3585 53H48.6415C48.8604 53 49.0377 52.8209 49.0377 52.6V16C49.0377 15.7791 48.8604 15.6 48.6415 15.6H42.3019V17.2C42.3019 18.3046 41.4149 19.2 40.3208 19.2H23.6792C22.5851 19.2 21.6981 18.3046 21.6981 17.2V15.6H15.3585ZM25.6604 15.2V13.6C25.6604 12.4954 24.7734 11.6 23.6792 11.6H15.3585C12.9514 11.6 11 13.5699 11 16V52.6C11 55.0301 12.9514 57 15.3585 57H48.6415C51.0487 57 53 55.0301 53 52.6V16C53 13.57 51.0487 11.6 48.6415 11.6H40.3208C39.2266 11.6 38.3396 12.4954 38.3396 13.6V15.2H25.6604Z" fill="#333333"/>
<path fill-rule="evenodd" clip-rule="evenodd" d="M21.6981 10C21.6981 8.89543 22.5851 8 23.6792 8H40.3208C41.4149 8 42.3019 8.89543 42.3019 10L42.3019 17.2C42.3019 18.3046 41.4149 19.2 40.3208 19.2H23.6792C22.5851 19.2 21.6981 18.3046 21.6981 17.2V10ZM25.6604 12V15.2H38.3396L38.3396 12H25.6604Z" fill="#333333"/>
<path fill-rule="evenodd" clip-rule="evenodd" d="M36.9663 25.5856C37.74 26.3666 37.7402 27.6329 36.9666 28.4141L30.8388 34.6014H37.9482C38.7495 34.6014 39.472 35.0888 39.7785 35.8363C40.0851 36.5837 39.9155 37.444 39.3487 38.0159L29.8349 47.6166C29.0611 48.3975 27.8067 48.3973 27.0332 47.6161C26.2596 46.8349 26.2599 45.5686 27.0337 44.7877L33.164 38.6014H26.0566C25.2553 38.6014 24.533 38.1142 24.2263 37.3669C23.9196 36.6196 24.0891 35.7594 24.6556 35.1874L34.1645 25.5859C34.9382 24.8048 36.1925 24.8047 36.9663 25.5856Z" fill="#333333"/>
</svg>
