<svg width="64" height="65" viewBox="0 0 64 65" fill="none" xmlns="http://www.w3.org/2000/svg">
<path fill-rule="evenodd" clip-rule="evenodd" d="M6 32.5C6 18.1406 17.6406 6.5 32 6.5C46.3594 6.5 58 18.1406 58 32.5C58 46.8594 46.3594 58.5 32 58.5C17.6406 58.5 6 46.8594 6 32.5ZM39.5299 23.1744C39.6462 22.365 39.2581 21.5663 38.5499 21.1576C37.8416 20.7489 36.9559 20.8125 36.3134 21.3183L26.9234 28.7083C26.52 29.0257 26.2542 29.486 26.1808 29.994L24.4708 41.834C24.3539 42.6436 24.7418 43.4428 25.4502 43.8519C26.1586 44.2609 27.0446 44.1974 27.6874 43.6914L37.0874 36.2914C37.491 35.9737 37.7569 35.5128 37.8299 35.0044L39.5299 23.1744ZM29.145 37.4531L30.0254 31.3571L34.8597 27.5525L33.9844 33.6434L29.145 37.4531Z" fill="#FF5934"/>
</svg>
