<svg width="64" height="65" viewBox="0 0 64 65" fill="none" xmlns="http://www.w3.org/2000/svg">
<path fill-rule="evenodd" clip-rule="evenodd" d="M32 12.5C28.134 12.5 25 15.634 25 19.5C25 23.366 28.134 26.5 32 26.5C35.866 26.5 39 23.366 39 19.5C39 15.634 35.866 12.5 32 12.5ZM21 19.5C21 13.4249 25.9249 8.5 32 8.5C38.0751 8.5 43 13.4249 43 19.5C43 22.9359 41.4247 26.0038 38.957 28.021C41.7017 28.4657 44.2227 29.2101 46.3521 30.3108C50.2878 32.3452 53 35.6907 53 40.48C53 45.1397 50.4371 49.1912 46.6209 52.0058C42.8043 54.8208 37.628 56.5 32 56.5C26.3713 56.5 21.195 54.8179 17.3787 52.0018C13.5633 49.1863 11 45.1352 11 40.48C11 35.6907 13.7122 32.3452 17.6479 30.3108C19.7773 29.2101 22.2983 28.4657 25.043 28.021C22.5753 26.0038 21 22.9359 21 19.5Z" fill="#FF5934"/>
</svg>
