<svg width="64" height="64" viewBox="0 0 64 64" fill="none" xmlns="http://www.w3.org/2000/svg">
<path fill-rule="evenodd" clip-rule="evenodd" d="M6 32C6 17.6406 17.6406 6 32 6C46.3594 6 58 17.6406 58 32C58 46.3594 46.3594 58 32 58C17.6406 58 6 46.3594 6 32ZM39.5299 22.6744C39.6462 21.865 39.2581 21.0663 38.5499 20.6576C37.8416 20.2489 36.9559 20.3125 36.3134 20.8183L26.9234 28.2083C26.52 28.5257 26.2542 28.986 26.1808 29.494L24.4708 41.334C24.3539 42.1436 24.7418 42.9428 25.4502 43.3519C26.1586 43.7609 27.0446 43.6974 27.6874 43.1914L37.0874 35.7914C37.491 35.4737 37.7569 35.0128 37.8299 34.5044L39.5299 22.6744ZM29.145 36.9531L30.0254 30.8571L34.8597 27.0525L33.9844 33.1434L29.145 36.9531Z" fill="#FF5934"/>
</svg>
