<svg width="64" height="65" viewBox="0 0 64 65" fill="none" xmlns="http://www.w3.org/2000/svg">
<path fill-rule="evenodd" clip-rule="evenodd" d="M30.7061 8.97493C31.4525 8.34169 32.5475 8.34169 33.2939 8.97493L52.2939 25.0949C52.7418 25.4749 53 26.0326 53 26.62V53.5C53 54.6046 52.1046 55.5 51 55.5H13C11.8954 55.5 11 54.6046 11 53.5V26.62C11 26.0326 11.2582 25.4749 11.7061 25.0949L30.7061 8.97493ZM28 42.5C26.8954 42.5 26 43.3954 26 44.5C26 45.6046 26.8954 46.5 28 46.5H36C37.1046 46.5 38 45.6046 38 44.5C38 43.3954 37.1046 42.5 36 42.5H28Z" fill="#FF5934"/>
</svg>
