<svg width="64" height="65" viewBox="0 0 64 65" fill="none" xmlns="http://www.w3.org/2000/svg">
<path fill-rule="evenodd" clip-rule="evenodd" d="M26 10.5C26 9.39543 26.8954 8.5 28 8.5H36C37.1046 8.5 38 9.39543 38 10.5C38 11.6046 37.1046 12.5 36 12.5H28C26.8954 12.5 26 11.6046 26 10.5ZM32 18.5C25.9246 18.5 21 23.4246 21 29.5V37.5C21 37.9168 20.8698 38.3233 20.6275 38.6625L17.8864 42.5H32H46.1136L43.3725 38.6625C43.1303 38.3233 43 37.9168 43 37.5V29.5C43 23.4246 38.0754 18.5 32 18.5ZM39.3517 46.5H50C50.7492 46.5 51.4355 46.0813 51.7783 45.4152C52.1212 44.749 52.0629 43.9472 51.6275 43.3375L47 36.8591V29.5C47 21.2154 40.2846 14.5 32 14.5C23.7154 14.5 17 21.2154 17 29.5V36.8591L12.3725 43.3375C11.9371 43.9472 11.8789 44.749 12.2217 45.4152C12.5645 46.0813 13.2508 46.5 14 46.5H24.6483C24.2284 47.3831 24 48.3907 24 49.5C24 53.9146 27.5854 57.5 32 57.5C36.4146 57.5 40 53.9146 40 49.5C40 48.3907 39.7716 47.3831 39.3517 46.5ZM32 46.5C30.6571 46.5 29.6251 46.846 28.9788 47.3435C28.3939 47.7938 28 48.4535 28 49.5C28 51.7054 29.7946 53.5 32 53.5C34.2054 53.5 36 51.7054 36 49.5C36 48.4535 35.6061 47.7938 35.0212 47.3435C34.3749 46.846 33.3429 46.5 32 46.5Z" fill="#333333"/>
</svg>
