<svg width="22" height="21" viewBox="0 0 22 21" fill="none" xmlns="http://www.w3.org/2000/svg">
<path fill-rule="evenodd" clip-rule="evenodd" d="M0 7C0 3.41017 2.91015 0.5 6.5 0.5C8.24701 0.5 9.83288 1.18982 11 2.30968C12.1671 1.18982 13.753 0.5 15.5 0.5C19.0898 0.5 22 3.41017 22 7C22 10.1341 20.164 12.9994 18.0231 15.1615C15.8724 17.3335 13.2421 18.9718 11.3154 19.6121C11.1106 19.6801 10.8894 19.6801 10.6846 19.6121C8.75788 18.9718 6.12761 17.3335 3.97692 15.1615C1.83596 12.9994 0 10.1341 0 7ZM6.5 2.5C4.01472 2.5 2 4.51473 2 7C2 9.36588 3.41404 11.7506 5.39808 13.7543C7.24453 15.619 9.43684 17.0021 11 17.6011C12.5632 17.0021 14.7555 15.619 16.6019 13.7543C18.586 11.7506 20 9.36588 20 7C20 4.51473 17.9853 2.5 15.5 2.5C13.9789 2.5 12.6337 3.25379 11.8176 4.41266C11.6303 4.67865 11.3253 4.8369 11 4.8369C10.6747 4.8369 10.3697 4.67865 10.1824 4.41266C9.36631 3.25379 8.02112 2.5 6.5 2.5Z" fill="#333333"/>
</svg>
