<svg width="64" height="65" viewBox="0 0 64 65" fill="none" xmlns="http://www.w3.org/2000/svg">
<path fill-rule="evenodd" clip-rule="evenodd" d="M25 19.5C25 15.634 28.134 12.5 32 12.5C35.866 12.5 39 15.634 39 19.5C39 23.366 35.866 26.5 32 26.5C28.134 26.5 25 23.366 25 19.5ZM32 8.5C25.9249 8.5 21 13.4249 21 19.5C21 22.9359 22.5753 26.0038 25.043 28.021C22.2983 28.4657 19.7773 29.2101 17.6479 30.3108C13.7122 32.3452 11 35.6907 11 40.48C11 45.1352 13.5633 49.1863 17.3787 52.0018C21.195 54.8179 26.3713 56.5 32 56.5C37.628 56.5 42.8043 54.8208 46.6209 52.0058C50.4371 49.1912 53 45.1397 53 40.48C53 35.6907 50.2878 32.3452 46.3521 30.3108C44.2227 29.2101 41.7017 28.4657 38.957 28.021C41.4247 26.0038 43 22.9359 43 19.5C43 13.4249 38.0751 8.5 32 8.5ZM15 40.48C15 37.5293 16.5428 35.3848 19.4846 33.8642C22.5228 32.2937 26.9106 31.5 32 31.5C37.0894 31.5 41.4772 32.2937 44.5154 33.8642C47.4572 35.3848 49 37.5293 49 40.48C49 43.5703 47.3079 46.5288 44.2466 48.7867C41.1857 51.0442 36.862 52.5 32 52.5C27.1387 52.5 22.815 51.0421 19.7538 48.7832C16.6917 46.5237 15 43.5648 15 40.48Z" fill="#333333"/>
</svg>
