<svg width="64" height="65" viewBox="0 0 64 65" fill="none" xmlns="http://www.w3.org/2000/svg">
<path fill-rule="evenodd" clip-rule="evenodd" d="M28 7.5C26.8954 7.5 26 8.39543 26 9.5C26 10.6046 26.8954 11.5 28 11.5H36C37.1046 11.5 38 10.6046 38 9.5C38 8.39543 37.1046 7.5 36 7.5H28ZM50 45.5H39.3517C39.7716 46.3831 40 47.3907 40 48.5C40 52.9146 36.4146 56.5 32 56.5C27.5854 56.5 24 52.9146 24 48.5C24 47.3907 24.2284 46.3831 24.6483 45.5H14C13.2508 45.5 12.5645 45.0813 12.2217 44.4152C11.8789 43.749 11.9371 42.9472 12.3725 42.3375L17 35.8591V28.5C17 20.2154 23.7154 13.5 32 13.5C40.2846 13.5 47 20.2154 47 28.5V35.8591L51.6275 42.3375C52.0629 42.9472 52.1212 43.749 51.7783 44.4152C51.4355 45.0813 50.7492 45.5 50 45.5ZM28.9788 46.3435C29.6251 45.846 30.6571 45.5 32 45.5C33.3429 45.5 34.3749 45.846 35.0212 46.3435C35.6061 46.7938 36 47.4535 36 48.5C36 50.7054 34.2054 52.5 32 52.5C29.7946 52.5 28 50.7054 28 48.5C28 47.4535 28.3939 46.7938 28.9788 46.3435Z" fill="#FF5934"/>
</svg>
