<svg width="64" height="65" viewBox="0 0 64 65" fill="none" xmlns="http://www.w3.org/2000/svg">
<path fill-rule="evenodd" clip-rule="evenodd" d="M32 10.4951C19.8497 10.4951 10 20.3449 10 32.4951C10 44.6454 19.8497 54.4951 32 54.4951C44.1503 54.4951 54 44.6454 54 32.4951C54 20.3449 44.1503 10.4951 32 10.4951ZM6 32.4951C6 18.1357 17.6406 6.49512 32 6.49512C46.3594 6.49512 58 18.1357 58 32.4951C58 46.8545 46.3594 58.4951 32 58.4951C17.6406 58.4951 6 46.8545 6 32.4951Z" fill="#333333"/>
<path fill-rule="evenodd" clip-rule="evenodd" d="M38.0991 20.7623C38.8077 21.1709 39.1961 21.9697 39.0797 22.7794L37.3797 34.6094C37.3067 35.1178 37.0408 35.5786 36.6372 35.8964L27.2372 43.2964C26.5944 43.8024 25.7083 43.8659 24.9999 43.4568C24.2915 43.0477 23.9036 42.2484 24.0206 41.4388L25.7306 29.6088C25.804 29.1013 26.0694 28.6414 26.4721 28.324L35.8621 20.924C36.5046 20.4178 37.3905 20.3537 38.0991 20.7623ZM29.5752 30.9714L28.6955 37.0576L33.5342 33.2484L34.4088 27.1622L29.5752 30.9714Z" fill="#333333"/>
</svg>
