<svg width="64" height="64" viewBox="0 0 64 64" fill="none" xmlns="http://www.w3.org/2000/svg">
<path fill-rule="evenodd" clip-rule="evenodd" d="M23.6791 8C22.5849 8 21.6979 8.89543 21.6979 10L21.698 11.6H15.3585C12.9514 11.6 11 13.5699 11 16V52.6C11 55.0301 12.9514 57 15.3585 57H48.6415C51.0487 57 53 55.0301 53 52.6V16C53 13.57 51.0487 11.6 48.6415 11.6H42.3017L42.3017 10C42.3017 8.89543 41.4147 8 40.3206 8H23.6791ZM25.6603 13.5799L25.6602 12H38.3394L38.3396 15.2H25.6604V13.6L25.6603 13.5799ZM36.9668 28.4141C37.7404 27.6329 37.7403 26.3666 36.9665 25.5856C36.1928 24.8047 34.9384 24.8048 34.1648 25.5859L24.6558 35.1874C24.0893 35.7594 23.9199 36.6196 24.2266 37.3669C24.5332 38.1142 25.2556 38.6014 26.0569 38.6014H33.1642L27.034 44.7877C26.2601 45.5686 26.2599 46.8349 27.0334 47.6161C27.807 48.3973 29.0613 48.3975 29.8352 47.6166L39.349 38.0159C39.9158 37.444 40.0854 36.5837 39.7788 35.8363C39.4722 35.0888 38.7498 34.6014 37.9484 34.6014H30.8391L36.9668 28.4141Z" fill="#FF5934"/>
</svg>
