<svg width="64" height="65" viewBox="0 0 64 65" fill="none" xmlns="http://www.w3.org/2000/svg">
<path fill-rule="evenodd" clip-rule="evenodd" d="M52 32.5C52 43.5457 43.0457 52.5 32 52.5C20.9543 52.5 12 43.5457 12 32.5C12 21.4543 20.9543 12.5 32 12.5C43.0457 12.5 52 21.4543 52 32.5ZM56 32.5C56 45.7548 45.2548 56.5 32 56.5C18.7452 56.5 8 45.7548 8 32.5C8 19.2452 18.7452 8.5 32 8.5C45.2548 8.5 56 19.2452 56 32.5ZM39.0797 22.7845C39.1961 21.9749 38.8077 21.176 38.0991 20.7674C37.3905 20.3588 36.5046 20.4229 35.8621 20.9292L26.4721 28.3292C26.0694 28.6465 25.804 29.1064 25.7306 29.6139L24.0206 41.4439C23.9036 42.2535 24.2915 43.0528 24.9999 43.4619C25.7083 43.8711 26.5944 43.8075 27.2372 43.3015L36.6372 35.9015C37.0408 35.5838 37.3067 35.1229 37.3797 34.6145L39.0797 22.7845ZM28.6955 37.0627L29.5752 30.9765L34.4088 27.1673L33.5342 33.2535L28.6955 37.0627Z" fill="#333333"/>
</svg>
