<svg width="64" height="65" viewBox="0 0 64 65" fill="none" xmlns="http://www.w3.org/2000/svg">
<path fill-rule="evenodd" clip-rule="evenodd" d="M33.3013 9.64824C32.5523 9.00625 31.4471 9.00625 30.6981 9.64824L12.0314 25.6482C11.5881 26.0282 11.333 26.5829 11.333 27.1667V53.8334C11.333 54.938 12.2284 55.8334 13.333 55.8334H50.6663C51.7709 55.8334 52.6663 54.938 52.6663 53.8334V27.1667C52.6663 26.5829 52.4112 26.0282 51.9679 25.6482L33.3013 9.64824ZM15.333 51.8334V28.0866L31.9997 13.8009L48.6663 28.0866V51.8334H15.333ZM28 42.5C26.8954 42.5 26 43.3954 26 44.5C26 45.6046 26.8954 46.5 28 46.5H36C37.1046 46.5 38 45.6046 38 44.5C38 43.3954 37.1046 42.5 36 42.5H28Z" fill="#333333"/>
</svg>
