<svg width="48" height="49" viewBox="0 0 48 49" fill="none" xmlns="http://www.w3.org/2000/svg">
<path fill-rule="evenodd" clip-rule="evenodd" d="M14 16.25C14 10.7272 18.4772 6.25 24 6.25C29.5228 6.25 34 10.7272 34 16.25V32.25C34 37.7728 29.5228 42.25 24 42.25C22.8954 42.25 22 43.1454 22 44.25C22 45.3546 22.8954 46.25 24 46.25C31.1141 46.25 36.9889 40.9437 37.8824 34.0731C42.5053 33.1926 46 29.1294 46 24.25C46 19.3706 42.5053 15.3074 37.8824 14.4269C36.9889 7.55628 31.1141 2.25 24 2.25C16.8859 2.25 11.0111 7.55628 10.1176 14.4269C5.49467 15.3074 2 19.3706 2 24.25C2 29.7729 6.47715 34.25 12 34.25C13.1046 34.25 14 33.3546 14 32.25V16.25ZM10 29.9086V18.5914C7.66961 19.4151 6 21.6375 6 24.25C6 26.8625 7.66961 29.0849 10 29.9086ZM38 18.5914V29.9086C40.3304 29.0849 42 26.8625 42 24.25C42 21.6375 40.3304 19.4151 38 18.5914Z" fill="#333333"/>
</svg>
