<svg width="48" height="49" viewBox="0 0 48 49" fill="none" xmlns="http://www.w3.org/2000/svg">
<path fill-rule="evenodd" clip-rule="evenodd" d="M6.87868 7.12868C8.05025 5.95711 9.94975 5.95711 11.1213 7.12868L24 20.0074L36.8787 7.12868C38.0503 5.95711 39.9497 5.95711 41.1213 7.12868C42.2929 8.30025 42.2929 10.1997 41.1213 11.3713L28.2426 24.25L41.1213 37.1287C42.2929 38.3003 42.2929 40.1997 41.1213 41.3713C39.9497 42.5429 38.0503 42.5429 36.8787 41.3713L24 28.4926L11.1213 41.3713C9.94975 42.5429 8.05025 42.5429 6.87868 41.3713C5.70711 40.1997 5.70711 38.3003 6.87868 37.1287L19.7574 24.25L6.87868 11.3713C5.70711 10.1997 5.70711 8.30025 6.87868 7.12868Z" fill="#333333"/>
</svg>
