<svg width="48" height="49" viewBox="0 0 48 49" fill="none" xmlns="http://www.w3.org/2000/svg">
<path fill-rule="evenodd" clip-rule="evenodd" d="M23 5.45716C23 3.2299 25.6929 2.11448 27.2678 3.68939L44.4142 20.8358C44.7963 21.2179 45.0075 21.7383 44.9998 22.2786C44.9921 22.8189 44.7661 23.3331 44.3732 23.7041L27.2166 39.9076C25.6222 41.4134 23 40.2831 23 38.0901V30.3675C17.8131 30.9852 13.9596 33.9466 11.2614 37.0599C9.74887 38.8051 8.63734 40.5586 7.90456 41.8776C7.53937 42.5349 7.27148 43.0785 7.09752 43.4513C7.01062 43.6375 6.94739 43.7806 6.9074 43.8734C6.88741 43.9197 6.87324 43.9535 6.86485 43.9737L6.85695 43.9928L6.85659 43.9938L6.85644 43.9941C6.49998 44.8835 5.56277 45.3952 4.62178 45.214C3.68035 45.0327 3 44.2088 3 43.2501C3 34.6282 4.25373 27.1582 7.69124 21.7957C10.9381 16.7306 15.9781 13.7783 23 13.3146V5.45716ZM7.43917 35.402C7.69358 35.0829 7.96001 34.7617 8.23862 34.4402C11.7044 30.4412 17.2093 26.2501 25 26.2501C26.1046 26.2501 27 27.1455 27 28.2501V34.6102L40.1306 22.2091L27 9.07848V15.2501C27 16.3546 26.1046 17.2501 25 17.2501C18.0739 17.2501 13.7615 19.7381 11.0588 23.9544C9.19655 26.8594 8.02098 30.7038 7.43917 35.402Z" fill="white"/>
</svg>
