<svg width="48" height="49" viewBox="0 0 48 49" fill="none" xmlns="http://www.w3.org/2000/svg">
<path fill-rule="evenodd" clip-rule="evenodd" d="M23.0576 2.51072C23.6713 2.16234 24.4232 2.16315 25.0361 2.51284L42.9911 12.7567C43.6149 13.1126 44 13.7757 44 14.4939V34.0061C44 34.7258 43.6133 35.3901 42.9874 35.7454L24.9424 45.9893C24.3287 46.3377 23.5768 46.3369 22.9639 45.9872L5.0089 35.7433C4.38509 35.3874 4 34.7243 4 34.0061V14.4939C4 13.7742 4.38672 13.1099 5.01263 12.7546L23.0576 2.51072ZM8 15.6583V32.8445L23.9575 41.9488L40 32.8417V15.6555L24.0425 6.5512L8 15.6583ZM24 20.8299C21.929 20.8299 20.375 22.432 20.375 24.25C20.375 26.068 21.929 27.6701 24 27.6701C26.071 27.6701 27.625 26.068 27.625 24.25C27.625 22.432 26.071 20.8299 24 20.8299ZM16.375 24.25C16.375 20.0842 19.861 16.8299 24 16.8299C28.139 16.8299 31.625 20.0842 31.625 24.25C31.625 28.4158 28.139 31.6701 24 31.6701C19.861 31.6701 16.375 28.4158 16.375 24.25Z" fill="#333333"/>
</svg>
