<svg width="48" height="49" viewBox="0 0 48 49" fill="none" xmlns="http://www.w3.org/2000/svg">
<path fill-rule="evenodd" clip-rule="evenodd" d="M10 24.25C10 26.4591 8.20914 28.25 6 28.25C3.79086 28.25 2 26.4591 2 24.25C2 22.0409 3.79086 20.25 6 20.25C8.20914 20.25 10 22.0409 10 24.25ZM28 24.25C28 26.4591 26.2091 28.25 24 28.25C21.7909 28.25 20 26.4591 20 24.25C20 22.0409 21.7909 20.25 24 20.25C26.2091 20.25 28 22.0409 28 24.25ZM42 28.25C44.2091 28.25 46 26.4591 46 24.25C46 22.0409 44.2091 20.25 42 20.25C39.7909 20.25 38 22.0409 38 24.25C38 26.4591 39.7909 28.25 42 28.25Z" fill="white"/>
</svg>
