<svg width="48" height="49" viewBox="0 0 48 49" fill="none" xmlns="http://www.w3.org/2000/svg">
<path d="M14.8183 14.0336C16.6754 12.1766 19.2467 11.0244 22.0833 11.0244C24.9198 11.0244 27.4911 12.1765 29.3482 14.0336C30.1293 14.8147 30.1293 16.081 29.3482 16.8621C28.5672 17.6431 27.3008 17.6431 26.5198 16.8621C25.3822 15.7245 23.8164 15.0244 22.0833 15.0244C20.3502 15.0244 18.7843 15.7245 17.6466 16.8621C16.8655 17.6431 15.5992 17.6431 14.8182 16.862C14.0371 16.0809 14.0372 14.8146 14.8183 14.0336Z" fill="#333333"/>
<path fill-rule="evenodd" clip-rule="evenodd" d="M2.5 22.3328C2.5 11.5176 11.2676 2.75 22.0828 2.75C32.8981 2.75 41.6657 11.5176 41.6657 22.3328C41.6657 27.0201 40.0189 31.3227 37.2723 34.6937L44.9141 42.3354C45.6951 43.1164 45.6951 44.3828 44.9141 45.1638C44.133 45.9449 42.8667 45.9449 42.0856 45.1638L34.4439 37.5221C31.0729 40.2688 26.7702 41.9157 22.0828 41.9157C11.2676 41.9157 2.5 33.1481 2.5 22.3328ZM22.0828 6.75C13.4767 6.75 6.5 13.7267 6.5 22.3328C6.5 30.939 13.4767 37.9157 22.0828 37.9157C30.689 37.9157 37.6657 30.939 37.6657 22.3328C37.6657 13.7267 30.689 6.75 22.0828 6.75Z" fill="#333333"/>
</svg>
