<svg width="20" height="20" viewBox="0 0 20 20" fill="none" xmlns="http://www.w3.org/2000/svg"><g clip-path="url(#clip0_5525_163726)"><path d="M13.5 7.6C13.3 4.8 12.2 2.1 10.1 0C7.9 2.1 6.7 4.9 6.5 7.6C7.8 8.3 9 9.2 10 10.3C11 9.2 12.2 8.3 13.5 7.6ZM7 10.3C6.9 10.2 6.7 10.1 6.6 10C6.7 10.1 6.9 10.2 7 10.3ZM13.4 10C13.3 10.1 13.1 10.2 13 10.3C13.1 10.2 13.3 10.1 13.4 10ZM10 13.4C7.9 10.2 4.2 8 0 8C0 13.3 3.4 17.8 8 19.5C8.6 19.7 9.3 19.9 10 20C10.7 19.9 11.3 19.7 12 19.5C16.7 17.8 20 13.3 20 8C15.8 8 12.1 10.2 10 13.4Z" fill="black"/></g><defs><clipPath id="clip0_5525_163726"><rect width="20" height="20" fill="white"/></clipPath></defs></svg>