<svg width="48" height="49" viewBox="0 0 48 49" fill="none" xmlns="http://www.w3.org/2000/svg">
<path fill-rule="evenodd" clip-rule="evenodd" d="M9.0675 8.05355C9.36503 7.28205 10.1067 6.77319 10.9335 6.77319H37.0735C37.8991 6.77319 38.6398 7.28045 38.9383 8.05019L41.5305 14.736C43.3473 19.4652 39.8267 24.5332 34.7835 24.5332C32.7572 24.5332 30.9179 23.6899 29.6083 22.3323C28.3054 23.6889 26.4732 24.5332 24.4435 24.5332H23.5635C21.5339 24.5332 19.7017 23.6889 18.3988 22.3323C17.0892 23.6899 15.2499 24.5332 13.2235 24.5332C12.8045 24.5332 12.3959 24.4982 12 24.4314V38.6831H38C39.1046 38.6831 40 39.5785 40 40.6831C40 41.7877 39.1046 42.6831 38 42.6831H10C8.89543 42.6831 8 41.7877 8 40.6831V23.6831C8 23.2876 8.11479 22.919 8.31286 22.6086C6.26757 20.7059 5.35774 17.6637 6.48792 14.7425L6.48841 14.7412L9.0675 8.05355ZM20.4035 17.3732C20.4035 19.1186 21.8181 20.5332 23.5635 20.5332H24.4435C26.189 20.5332 27.6035 19.1186 27.6035 17.3732C27.6035 16.2686 28.499 15.3732 29.6035 15.3732C30.7081 15.3732 31.6035 16.2686 31.6035 17.3732C31.6035 19.1086 33.028 20.5332 34.7835 20.5332C37.0395 20.5332 38.5985 18.263 37.7976 16.173L37.7966 16.1704L35.7039 10.7732H12.3058L10.2187 16.1852C9.41223 18.2685 10.9617 20.5332 13.2235 20.5332C14.9791 20.5332 16.4035 19.1086 16.4035 17.3732C16.4035 16.2686 17.299 15.3732 18.4035 15.3732C19.5081 15.3732 20.4035 16.2686 20.4035 17.3732ZM43.4335 27.1679C44.2037 26.3762 44.1864 25.11 43.3947 24.3397C42.603 23.5695 41.3368 23.5868 40.5665 24.3785L34.2162 30.9052L31.4335 28.0452C30.6632 27.2535 29.397 27.2361 28.6053 28.0064C27.8136 28.7767 27.7963 30.0429 28.5665 30.8346L32.7828 35.1679C33.1593 35.5549 33.6763 35.7732 34.2162 35.7732C34.7561 35.7732 35.2731 35.5549 35.6497 35.1679L43.4335 27.1679Z" fill="#333333"/>
</svg>
