<svg width="24" height="25" viewBox="0 0 24 25" fill="none" xmlns="http://www.w3.org/2000/svg">
<g clip-path="url(#clip0_4986_160275)">
<path fill-rule="evenodd" clip-rule="evenodd" d="M11.7242 0.790045C11.9072 0.736627 12.1017 0.736652 12.2847 0.790117L21.2804 3.41794C21.7069 3.54252 22 3.93353 22 4.37782V9.76684C22 15.8616 18.0996 21.2724 12.3174 23.199C12.1123 23.2673 11.8905 23.2673 11.6853 23.199C5.90157 21.2724 2 15.8605 2 9.76435V4.37782C2 3.93344 2.29326 3.54236 2.71985 3.41787L11.7242 0.790045ZM11.0001 14.6642L16.7072 8.95706L15.293 7.54285L11.0001 11.8357L8.70718 9.54285L7.29297 10.9571L11.0001 14.6642Z" fill="#4AB87D"/>
</g>
<defs>
<clipPath id="clip0_4986_160275">
<rect width="24" height="24" fill="white" transform="translate(0 0.25)"/>
</clipPath>
</defs>
</svg>
