<svg width="48" height="49" viewBox="0 0 48 49" fill="none" xmlns="http://www.w3.org/2000/svg">
<path fill-rule="evenodd" clip-rule="evenodd" d="M25.3016 7.25468C24.5526 6.6127 23.4474 6.6127 22.6984 7.25468L8.69842 19.2547C8.25513 19.6346 8 20.1893 8 20.7732V40.7732C8 41.8778 8.89543 42.7732 10 42.7732H38C39.1046 42.7732 40 41.8778 40 40.7732V20.7732C40 20.1893 39.7449 19.6346 39.3016 19.2547L25.3016 7.25468ZM12 38.7732V21.6931L24 11.4073L36 21.6931V38.7732H12ZM21 31.7732C19.8954 31.7732 19 32.6686 19 33.7732C19 34.8778 19.8954 35.7732 21 35.7732H27C28.1046 35.7732 29 34.8778 29 33.7732C29 32.6686 28.1046 31.7732 27 31.7732H21Z" fill="#333333"/>
</svg>
