<svg width="32" height="33" viewBox="0 0 32 33" fill="none" xmlns="http://www.w3.org/2000/svg">
<path d="M10.2607 3.05591C10.8537 3.05591 11.4002 3.37756 11.6881 3.89612L13.6851 7.49352C13.9466 7.96454 13.9589 8.53425 13.718 9.01613L11.794 12.864C11.794 12.864 12.3516 15.7305 14.685 18.0639C17.0185 20.3973 19.8753 20.9452 19.8753 20.9452L23.7225 19.0216C24.2047 18.7805 24.7749 18.7929 25.2461 19.0549L28.8536 21.0606C29.3718 21.3487 29.693 21.8948 29.693 22.4876V26.6292C29.693 28.7383 27.7339 30.2617 25.7355 29.5873C21.631 28.2024 15.2598 25.5655 11.2216 21.5272C7.18343 17.489 4.54648 11.1178 3.16155 7.01343C2.48725 5.01499 4.01058 3.05591 6.11968 3.05591H10.2607Z" fill="#48DB94"/>
</svg>
