<svg width="25" height="25" viewBox="0 0 25 25" fill="none" xmlns="http://www.w3.org/2000/svg">
<path fill-rule="evenodd" clip-rule="evenodd" d="M3.22754 1.75C2.67525 1.75 2.22754 2.19772 2.22754 2.75V5.25C1.67525 5.25 1.22754 5.69772 1.22754 6.25V11.36C1.22754 11.6104 1.32149 11.8517 1.49083 12.0362C1.72288 12.289 1.96881 12.5234 2.22764 12.7358L2.22754 12.75V21.75C2.22754 22.3023 2.67525 22.75 3.22754 22.75H9.72754H14.7275H21.2275C21.7798 22.75 22.2275 22.3023 22.2275 21.75V12.75L22.2275 12.7434C22.4901 12.5291 22.7394 12.2921 22.9743 12.0362C23.1436 11.8517 23.2375 11.6104 23.2375 11.36V6.25C23.2375 5.69772 22.7898 5.25 22.2375 5.25H22.2275V2.75C22.2275 2.19772 21.7798 1.75 21.2275 1.75H3.22754ZM15.7275 20.75H20.2275V13.8142C19.8039 13.935 19.3613 14 18.9025 14C17.6483 14 16.5205 13.5175 15.5675 12.7357C14.6146 13.5175 13.4868 14 12.2325 14C10.9783 14 9.85047 13.5175 8.89754 12.7357C7.94461 13.5175 6.81679 14 5.56254 14C5.09949 14 4.65368 13.9342 4.22754 13.8119V20.75H8.72754V17.75C8.72754 17.1977 9.17525 16.75 9.72754 16.75H14.7275C15.2798 16.75 15.7275 17.1977 15.7275 17.75V20.75ZM10.7275 20.75H13.7275V18.75H10.7275V20.75ZM3.22754 10.9523V7.25H21.2275H21.2375V10.9521C20.4966 11.6567 19.6981 12 18.9025 12C18.0074 12 17.1179 11.5702 16.3042 10.6838C16.1149 10.4775 15.8476 10.36 15.5675 10.36C15.2875 10.36 15.0202 10.4775 14.8308 10.6838C14.0172 11.5702 13.1277 12 12.2325 12C11.3374 12 10.4479 11.5702 9.63425 10.6838C9.44486 10.4775 9.17762 10.36 8.89754 10.36C8.61746 10.36 8.35022 10.4775 8.16083 10.6838C7.34722 11.5702 6.45766 12 5.56254 12C4.76305 12 3.968 11.6571 3.22754 10.9523ZM4.22754 5.25H20.2275V3.75H4.22754V5.25Z" fill="#333333"/>
</svg>
