<svg width="48" height="49" viewBox="0 0 48 49" fill="none" xmlns="http://www.w3.org/2000/svg">
<path fill-rule="evenodd" clip-rule="evenodd" d="M10.9335 6.77319C10.1067 6.77319 9.36503 7.28205 9.0675 8.05355L6.48841 14.7412L6.48792 14.7425C5.41635 17.5122 6.17868 20.3906 8.00391 22.3035V40.6832C8.00391 41.7877 8.89934 42.6832 10.0039 42.6832H38.0039C39.1085 42.6832 40.0039 41.7877 40.0039 40.6832V22.3002C41.8299 20.3841 42.5932 17.5021 41.5305 14.736L38.9383 8.05019C38.6398 7.28045 37.8991 6.77319 37.0735 6.77319H10.9335ZM36.0039 24.4318C35.609 24.4984 35.2015 24.5332 34.7835 24.5332C32.7572 24.5332 30.9179 23.6899 29.6083 22.3323C28.3054 23.6889 26.4732 24.5332 24.4435 24.5332H23.5635C21.5339 24.5332 19.7017 23.6889 18.3988 22.3323C17.0892 23.6899 15.2499 24.5332 13.2235 24.5332C12.8059 24.5332 12.3986 24.4985 12.0039 24.432V38.6832H36.0039V24.4318ZM23.5635 20.5332C21.8181 20.5332 20.4035 19.1186 20.4035 17.3732C20.4035 16.2686 19.5081 15.3732 18.4035 15.3732C17.299 15.3732 16.4035 16.2686 16.4035 17.3732C16.4035 19.1086 14.9791 20.5332 13.2235 20.5332C10.9617 20.5332 9.41223 18.2685 10.2187 16.1852L12.3058 10.7732H35.7039L37.7966 16.1704L37.7976 16.173C38.5985 18.263 37.0395 20.5332 34.7835 20.5332C33.028 20.5332 31.6035 19.1086 31.6035 17.3732C31.6035 16.2686 30.7081 15.3732 29.6035 15.3732C28.499 15.3732 27.6035 16.2686 27.6035 17.3732C27.6035 19.1186 26.189 20.5332 24.4435 20.5332H23.5635Z" fill="#333333"/>
</svg>
