<svg width="48" height="49" viewBox="0 0 48 49" fill="none" xmlns="http://www.w3.org/2000/svg">
<path fill-rule="evenodd" clip-rule="evenodd" d="M25.5956 7.56735C25.2176 7.06717 24.627 6.77319 24 6.77319C23.3731 6.77319 22.7824 7.06717 22.4044 7.56735L16.187 15.7944L6.36264 19.0975C5.76234 19.2993 5.2931 19.7735 5.09764 20.376C4.90218 20.9784 5.00361 21.6378 5.37106 22.1536L11.3488 30.5451L11.4902 40.8008C11.4989 41.4301 11.8033 42.0187 12.312 42.3894C12.8206 42.7602 13.4741 42.8698 14.0759 42.6855L24 39.645L33.9241 42.6855C34.9803 43.009 36.0987 42.4152 36.4223 41.3591C36.7458 40.3029 36.152 39.1845 35.0959 38.8609L24.5859 35.6409C24.2041 35.5239 23.796 35.5239 23.4141 35.6409L15.4531 38.08L15.3398 29.8656C15.3342 29.4591 15.2048 29.0639 14.969 28.7328L10.1938 22.0294L18.0474 19.3889C18.4289 19.2606 18.7629 19.0202 19.0056 18.699L24 12.0904L28.9944 18.699C29.2371 19.0202 29.5711 19.2606 29.9526 19.3889L36.4589 21.5764C37.5059 21.9284 38.64 21.365 38.992 20.3181C39.344 19.2711 38.7806 18.137 37.7336 17.785L31.8131 15.7944L25.5956 7.56735ZM43.4335 27.1679C44.2037 26.3762 44.1864 25.11 43.3947 24.3397C42.603 23.5695 41.3368 23.5868 40.5665 24.3785L34.2162 30.9052L31.4335 28.0452C30.6632 27.2535 29.397 27.2361 28.6053 28.0064C27.8136 28.7767 27.7963 30.0429 28.5665 30.8346L32.7828 35.1679C33.1593 35.5549 33.6763 35.7732 34.2162 35.7732C34.7561 35.7732 35.2731 35.5549 35.6497 35.1679L43.4335 27.1679Z" fill="#333333"/>
</svg>
