<svg width="48" height="49" viewBox="0 0 48 49" fill="none" xmlns="http://www.w3.org/2000/svg">
<path fill-rule="evenodd" clip-rule="evenodd" d="M24 6.77319C24.627 6.77319 25.2176 7.06717 25.5956 7.56735L31.8131 15.7944L41.6374 19.0975C42.2377 19.2993 42.7069 19.7735 42.9024 20.376C43.0978 20.9784 42.9964 21.6378 42.629 22.1536L36.6512 30.5451L36.5098 40.8008C36.5011 41.4301 36.1967 42.0187 35.6881 42.3894C35.1794 42.7602 34.5259 42.8698 33.9241 42.6855L24 39.645L14.0759 42.6855C13.4741 42.8698 12.8206 42.7602 12.312 42.3894C11.8033 42.0187 11.4989 41.4301 11.4902 40.8008L11.3488 30.5451L5.37106 22.1536C5.00361 21.6378 4.90218 20.9784 5.09764 20.376C5.2931 19.7735 5.76234 19.2993 6.36264 19.0975L16.187 15.7944L22.4044 7.56735C22.7824 7.06717 23.3731 6.77319 24 6.77319ZM24 12.0904L19.0056 18.699C18.7629 19.0202 18.4289 19.2606 18.0474 19.3889L10.1938 22.0294L14.969 28.7328C15.2048 29.0639 15.3342 29.4591 15.3398 29.8656L15.4531 38.08L23.4141 35.6409C23.796 35.5239 24.2041 35.5239 24.5859 35.6409L32.547 38.08L32.6602 29.8656C32.6658 29.4591 32.7952 29.0639 33.0311 28.7328L37.8063 22.0294L29.9526 19.3889C29.5711 19.2606 29.2371 19.0202 28.9944 18.699L24 12.0904Z" fill="#333333"/>
</svg>
