<svg width="48" height="49" viewBox="0 0 48 49" fill="none" xmlns="http://www.w3.org/2000/svg">
<path fill-rule="evenodd" clip-rule="evenodd" d="M6 3.19287C4.89543 3.19287 4 4.0883 4 5.19287V10.1929C2.89543 10.1929 2 11.0883 2 12.1929V22.4129C2 22.9137 2.18791 23.3963 2.52658 23.7653C2.99069 24.2709 3.48254 24.7397 4.0002 25.1644L4 25.1929V43.1929C4 44.2974 4.89543 45.1929 6 45.1929H19H29H42C43.1046 45.1929 44 44.2974 44 43.1929V25.1929L44 25.1798C44.5251 24.7511 45.0237 24.2771 45.4934 23.7653C45.8321 23.3963 46.02 22.9137 46.02 22.4129V12.1929C46.02 11.0883 45.1246 10.1929 44.02 10.1929H44V5.19287C44 4.0883 43.1046 3.19287 42 3.19287H6ZM31 41.1929H40V27.3212C39.1526 27.563 38.2675 27.6929 37.35 27.6929C34.8415 27.6929 32.5859 26.7278 30.68 25.1642C28.7741 26.7278 26.5185 27.6929 24.01 27.6929C21.5015 27.6929 19.2459 26.7278 17.34 25.1642C15.4341 26.7278 13.1785 27.6929 10.67 27.6929C9.74391 27.6929 8.85228 27.5613 8 27.3167V41.1929H17V35.1929C17 34.0883 17.8954 33.1929 19 33.1929H29C30.1046 33.1929 31 34.0883 31 35.1929V41.1929ZM21 41.1929H27V37.1929H21V41.1929ZM6 21.5975V14.1929H42H42.02V21.5972C40.5382 23.0063 38.9411 23.6929 37.35 23.6929C35.5597 23.6929 33.7806 22.8333 32.1534 21.0605C31.7746 20.6478 31.2402 20.4129 30.68 20.4129C30.1198 20.4129 29.5854 20.6478 29.2066 21.0605C27.5794 22.8333 25.8002 23.6929 24.01 23.6929C22.2198 23.6929 20.4406 22.8333 18.8134 21.0605C18.4346 20.6478 17.9002 20.4129 17.34 20.4129C16.7798 20.4129 16.2454 20.6478 15.8666 21.0605C14.2394 22.8333 12.4602 23.6929 10.67 23.6929C9.07102 23.6929 7.48092 23.0071 6 21.5975ZM8 10.1929H40V7.19287H8V10.1929Z" fill="#333333"/>
</svg>
