<svg width="36" height="37" viewBox="0 0 36 37" fill="none" xmlns="http://www.w3.org/2000/svg">
<path fill-rule="evenodd" clip-rule="evenodd" d="M34.1879 19.1194C32.1586 21.4517 25.7903 27.9989 18.2482 27.9989C10.7062 27.9989 4.33784 21.4517 2.30858 19.1194C1.89714 18.6466 1.89714 17.9666 2.30858 17.4937C4.33784 15.1615 10.7062 8.61426 18.2482 8.61426C25.7903 8.61426 32.1586 15.1615 34.1879 17.4937C34.5993 17.9666 34.5993 18.6466 34.1879 19.1194ZM22.4021 18.3065C22.4021 20.5369 20.5423 22.345 18.2482 22.345C15.9542 22.345 14.0944 20.5369 14.0944 18.3065C14.0944 16.0762 15.9542 14.2681 18.2482 14.2681C20.5423 14.2681 22.4021 16.0762 22.4021 18.3065Z" fill="white"/>
</svg>
