<svg width="48" height="49" viewBox="0 0 48 49" fill="none" xmlns="http://www.w3.org/2000/svg">
<path d="M20 22.1929C24.96 22.1929 29 18.1529 29 13.1929C29 8.23287 24.96 4.19287 20 4.19287C15.04 4.19287 11 8.23287 11 13.1929C11 18.1529 15.04 22.1929 20 22.1929ZM20 8.19287C22.76 8.19287 25 10.4329 25 13.1929C25 15.9529 22.76 18.1929 20 18.1929C17.24 18.1929 15 15.9529 15 13.1929C15 10.4329 17.24 8.19287 20 8.19287ZM30 42.1929C30 43.2929 29.1 44.1929 28 44.1929H7C5.9 44.1929 5 43.2929 5 42.1929V40.9929C5 36.2029 5 33.7929 6.09 31.6529C7.05 29.7629 8.57 28.2529 10.46 27.2829C12.6 26.1929 15.01 26.1929 19.8 26.1929H28C29.1 26.1929 30 27.0929 30 28.1929C30 29.2929 29.1 30.1929 28 30.1929H19.8C15.65 30.1929 13.56 30.1929 12.28 30.8429C11.14 31.4229 10.24 32.3329 9.66 33.4629C9.04 34.6629 9 36.5629 9 40.1929H28C29.1 40.1929 30 41.0929 30 42.1929ZM42.41 31.6029L34.41 39.6029C34.02 39.9929 33.51 40.1929 33 40.1929C32.49 40.1929 31.98 39.9929 31.59 39.6029L27.59 35.6029C26.81 34.8229 26.81 33.5529 27.59 32.7729C28.37 31.9929 29.64 31.9929 30.42 32.7729L33 35.3629L39.59 28.7729C40.37 27.9929 41.64 27.9929 42.42 28.7729C43.2 29.5629 43.2 30.8229 42.41 31.6029Z" fill="white"/>
</svg>
