<svg width="30" height="31" viewBox="0 0 30 31" fill="none" xmlns="http://www.w3.org/2000/svg">
<path d="M15 0.75C6.7125 0.75 0 5.95909 0 14.8091C0 22.2273 6.125 27.3136 13.5 27.8455C14.1625 27.9 13.5 30.75 13.5 30.75C21.7875 30.75 30 22.8136 30 14.8091C30 6.80455 23.2875 0.75 15 0.75ZM7.5 17.1136C6.125 17.1136 5 15.8864 5 14.3864C5 12.8864 6.125 11.6591 7.5 11.6591C8.875 11.6591 10 12.8864 10 14.3864C10 15.8864 8.875 17.1136 7.5 17.1136ZM15 17.1136C13.625 17.1136 12.5 15.8864 12.5 14.3864C12.5 12.8864 13.625 11.6591 15 11.6591C16.375 11.6591 17.5 12.8864 17.5 14.3864C17.5 15.8864 16.375 17.1136 15 17.1136ZM22.5 17.1136C21.125 17.1136 20 15.8864 20 14.3864C20 12.8864 21.125 11.6591 22.5 11.6591C23.875 11.6591 25 12.8864 25 14.3864C25 15.8864 23.875 17.1136 22.5 17.1136Z" fill="white"/>
</svg>
