<svg width="36" height="37" viewBox="0 0 36 37" fill="none" xmlns="http://www.w3.org/2000/svg">
<path fill-rule="evenodd" clip-rule="evenodd" d="M1.5 7.55713C1.5 5.90027 2.84315 4.55713 4.5 4.55713H25.5C27.1569 4.55713 28.5 5.90029 28.5 7.55713V11.3071L32.1 8.60713C32.5545 8.26623 33.1626 8.2114 33.6708 8.46549C34.179 8.71958 34.5 9.23897 34.5 9.80713V27.0571C34.5 27.6253 34.179 28.1447 33.6708 28.3988C33.1626 28.6529 32.5545 28.598 32.1 28.2571L28.5 25.5571V28.5571C28.5 30.214 27.1569 31.5571 25.5 31.5571H4.5C2.84316 31.5571 1.5 30.214 1.5 28.5571V7.55713ZM7.5 15.8071C7.5 12.9076 9.8505 10.5571 12.75 10.5571C15.6495 10.5571 18 12.9076 18 15.8071C18 18.7066 15.6495 21.0571 12.75 21.0571C9.8505 21.0571 7.5 18.7066 7.5 15.8071Z" fill="#5FBC7F"/>
</svg>
