<svg width="48" height="49" viewBox="0 0 48 49" fill="none" xmlns="http://www.w3.org/2000/svg">
<path fill-rule="evenodd" clip-rule="evenodd" d="M9 7.19287C7.89543 7.19287 7 8.0883 7 9.19287V17.1929C7 18.2974 7.89543 19.1929 9 19.1929H17C18.1046 19.1929 19 18.2974 19 17.1929V9.19287C19 8.0883 18.1046 7.19287 17 7.19287H9ZM11 15.1929V11.1929H15V15.1929H11ZM9 29.1929C7.89543 29.1929 7 30.0883 7 31.1929V39.1929C7 40.2974 7.89543 41.1929 9 41.1929H17C18.1046 41.1929 19 40.2974 19 39.1929V31.1929C19 30.0883 18.1046 29.1929 17 29.1929H9ZM11 37.1929V33.1929H15V37.1929H11ZM29 31.1929C29 30.0883 29.8954 29.1929 31 29.1929H39C40.1046 29.1929 41 30.0883 41 31.1929V39.1929C41 40.2974 40.1046 41.1929 39 41.1929H31C29.8954 41.1929 29 40.2974 29 39.1929V31.1929ZM33 33.1929V37.1929H37V33.1929H33ZM31 7.19287C29.8954 7.19287 29 8.0883 29 9.19287V17.1929C29 18.2974 29.8954 19.1929 31 19.1929H39C40.1046 19.1929 41 18.2974 41 17.1929V9.19287C41 8.0883 40.1046 7.19287 39 7.19287H31ZM33 15.1929V11.1929H37V15.1929H33ZM24 7.19287C25.1046 7.19287 26 8.0883 26 9.19287V24.1929C26 25.2974 25.1046 26.1929 24 26.1929H9C7.89543 26.1929 7 25.2974 7 24.1929C7 23.0883 7.89543 22.1929 9 22.1929H22V9.19287C22 8.0883 22.8954 7.19287 24 7.19287ZM26 31.1929C26 30.0883 25.1046 29.1929 24 29.1929C22.8954 29.1929 22 30.0883 22 31.1929V39.1929C22 40.2974 22.8954 41.1929 24 41.1929C25.1046 41.1929 26 40.2974 26 39.1929V31.1929ZM31 22.1929C29.8954 22.1929 29 23.0883 29 24.1929C29 25.2974 29.8954 26.1929 31 26.1929H39C40.1046 26.1929 41 25.2974 41 24.1929C41 23.0883 40.1046 22.1929 39 22.1929H31Z" fill="white"/>
</svg>
