<svg width="48" height="49" viewBox="0 0 48 49" fill="none" xmlns="http://www.w3.org/2000/svg">
<path fill-rule="evenodd" clip-rule="evenodd" d="M6 8.19287C6 7.0883 6.89543 6.19287 8 6.19287H16C17.1046 6.19287 18 7.0883 18 8.19287C18 9.29744 17.1046 10.1929 16 10.1929H10V16.1929C10 17.2974 9.10457 18.1929 8 18.1929C6.89543 18.1929 6 17.2974 6 16.1929V8.19287ZM8 30.1929C9.10457 30.1929 10 31.0883 10 32.1929V38.1929H16C17.1046 38.1929 18 39.0883 18 40.1929C18 41.2974 17.1046 42.1929 16 42.1929H8C6.89543 42.1929 6 41.2974 6 40.1929V32.1929C6 31.0883 6.89543 30.1929 8 30.1929ZM42 32.1929C42 31.0883 41.1046 30.1929 40 30.1929C38.8954 30.1929 38 31.0883 38 32.1929V38.1929H32C30.8954 38.1929 30 39.0883 30 40.1929C30 41.2974 30.8954 42.1929 32 42.1929H40C41.1046 42.1929 42 41.2974 42 40.1929V32.1929ZM30 8.19287C30 7.0883 30.8954 6.19287 32 6.19287H40C41.1046 6.19287 42 7.0883 42 8.19287V16.1929C42 17.2974 41.1046 18.1929 40 18.1929C38.8954 18.1929 38 17.2974 38 16.1929V10.1929H32C30.8954 10.1929 30 9.29744 30 8.19287ZM11.5557 22.1929C10.4511 22.1929 9.55566 23.0883 9.55566 24.1929C9.55566 25.2974 10.4511 26.1929 11.5557 26.1929H36.4446C37.5491 26.1929 38.4446 25.2974 38.4446 24.1929C38.4446 23.0883 37.5491 22.1929 36.4446 22.1929H11.5557Z" fill="white"/>
</svg>
