<svg width="37" height="37" viewBox="0 0 37 37" fill="none" xmlns="http://www.w3.org/2000/svg">
<path fill-rule="evenodd" clip-rule="evenodd" d="M3.93269 11.2839C4.66752 10.9013 5.57331 11.1869 5.95583 11.9218C6.32146 12.6241 6.8996 13.3204 7.69318 13.9708L7.6932 13.9708C9.94141 15.8134 13.716 17.1144 18.1253 17.1144C22.5346 17.1144 26.3092 15.8134 28.5574 13.9708L28.5574 13.9708C29.351 13.3204 29.9292 12.6241 30.2948 11.9218C30.6773 11.187 31.5831 10.9013 32.3179 11.2839C33.0527 11.6664 33.3384 12.5722 32.9558 13.307C32.3694 14.4336 31.5049 15.434 30.459 16.2911C30.3614 16.3711 30.2619 16.4501 30.1607 16.528L33.444 19.8112C34.0297 20.397 34.0298 21.3467 33.444 21.9325C32.8582 22.5183 31.9084 22.5183 31.3226 21.9325L27.5211 18.131C26.3408 18.6949 25.0362 19.1505 23.6442 19.482L24.8605 24.0216C25.0749 24.8218 24.6001 25.6443 23.7999 25.8587C22.9997 26.0731 22.1772 25.5982 21.9628 24.798L20.6729 19.984C19.8409 20.07 18.9896 20.1144 18.1253 20.1144C17.2549 20.1144 16.3977 20.0694 15.56 19.9821L14.2696 24.798C14.0552 25.5982 13.2326 26.0731 12.4324 25.8587C11.6322 25.6443 11.1574 24.8218 11.3718 24.0216L12.5893 19.478C11.2057 19.1472 9.90878 18.694 8.73472 18.1335L4.93566 21.9325C4.34987 22.5183 3.40012 22.5183 2.81434 21.9325C2.22855 21.3467 2.22855 20.397 2.81434 19.8112L6.09423 16.5313C5.99153 16.4524 5.89063 16.3723 5.79158 16.2911C4.7457 15.434 3.88124 14.4336 3.29479 13.307C2.91227 12.5722 3.19787 11.6664 3.93269 11.2839Z" fill="#333333"/>
</svg>
