<svg width="48" height="49" viewBox="0 0 48 49" fill="none" xmlns="http://www.w3.org/2000/svg">
<path fill-rule="evenodd" clip-rule="evenodd" d="M15 4.19287C15 3.0883 15.8954 2.19287 17 2.19287H31C32.1046 2.19287 33 3.0883 33 4.19287V5.19287H38C40.2092 5.19287 42 6.98375 42 9.19287V42.1929C42 44.402 40.2092 46.1929 38 46.1929H10C7.79088 46.1929 6 44.4021 6 42.1929V9.19287C6 6.98373 7.79086 5.19287 10 5.19287H15V4.19287ZM33 10.1929V9.19287H38V42.1929H10V9.19287H15V10.1929C15 11.2974 15.8954 12.1929 17 12.1929H31C32.1046 12.1929 33 11.2974 33 10.1929ZM29 6.19287V7.19287V8.19287H19V7.19287V6.19287H29ZM28.414 20.6069C29.195 19.8258 29.1949 18.5595 28.4137 17.7785C27.6326 16.9975 26.3663 16.9977 25.5853 17.7788L17.5857 25.78C17.0138 26.352 16.8428 27.2122 17.1523 27.9595C17.4619 28.7068 18.1912 29.1941 19.0001 29.1941H24.1743L19.5864 33.7802C18.8052 34.5611 18.805 35.8274 19.5859 36.6086C20.3668 37.3898 21.6331 37.3901 22.4143 36.6092L30.418 28.6086C30.9902 28.0366 31.1614 27.1763 30.8519 26.4289C30.5424 25.6814 29.8131 25.1941 29.0041 25.1941H23.8278L28.414 20.6069Z" fill="#333333"/>
</svg>
