<svg width="48" height="49" viewBox="0 0 48 49" fill="none" xmlns="http://www.w3.org/2000/svg">
<path fill-rule="evenodd" clip-rule="evenodd" d="M23.4483 2.22267C23.8144 2.11583 24.2034 2.11588 24.5694 2.22281L42.5608 7.47845C43.4137 7.72761 44 8.50964 44 9.39822V20.1763C44 32.4564 36.1098 42.2171 24.6348 46.0405C24.2245 46.1772 23.7809 46.1773 23.3705 46.0406C11.8926 42.2173 4 32.4543 4 20.1713V9.39822C4 8.50945 4.58651 7.7273 5.43969 7.47831L23.4483 2.22267ZM8 10.898V20.1713C8 30.3311 14.3345 38.5521 24.0025 42.0267C33.6677 38.5521 40 30.3333 40 20.1763V10.8976L24.0083 6.22609L8 10.898ZM24 15.1426C22.3431 15.1426 21 16.4857 21 18.1426C21 19.7994 22.3431 21.1426 24 21.1426C25.6569 21.1426 27 19.7994 27 18.1426C27 16.4857 25.6569 15.1426 24 15.1426ZM29.3304 22.6801C30.3716 21.4582 31 19.8738 31 18.1426C31 14.2766 27.866 11.1426 24 11.1426C20.134 11.1426 17 14.2766 17 18.1426C17 19.8738 17.6284 21.4582 18.6696 22.6801C15.8638 24.4512 14 27.5792 14 31.1426C14 32.2471 14.8954 33.1426 16 33.1426C17.1046 33.1426 18 32.2471 18 31.1426C18 27.8288 20.6863 25.1426 24 25.1426C27.3137 25.1426 30 27.8288 30 31.1426C30 32.2471 30.8954 33.1426 32 33.1426C33.1046 33.1426 34 32.2471 34 31.1426C34 27.5792 32.1362 24.4512 29.3304 22.6801Z" fill="white"/>
</svg>
