<svg width="48" height="49" viewBox="0 0 48 49" fill="none" xmlns="http://www.w3.org/2000/svg">
<path fill-rule="evenodd" clip-rule="evenodd" d="M23.7504 13.6426C19.086 13.6426 14.9976 16.1577 12.1865 18.4877C10.7597 19.6704 9.6088 20.8496 8.81399 21.7331C8.41572 22.1758 8.10459 22.5469 7.89064 22.8104C7.78361 22.9422 7.70074 23.0473 7.64328 23.1213C7.61454 23.1582 7.59215 23.1875 7.57625 23.2084L7.55729 23.2334L7.5515 23.2411L7.54953 23.2437L7.54878 23.2447C7.15171 23.7768 7.15171 24.5083 7.54878 25.0404L7.54953 25.0414L7.5515 25.0441L7.55729 25.0518L7.57625 25.0768C7.59215 25.0977 7.61454 25.1269 7.64328 25.1639C7.70074 25.2379 7.78361 25.343 7.89064 25.4748C8.10459 25.7383 8.41572 26.1093 8.81399 26.552C9.6088 27.4355 10.7597 28.6148 12.1865 29.7974C14.9976 32.1275 19.086 34.6426 23.7504 34.6426C28.4147 34.6426 32.5032 32.1275 35.3142 29.7974C36.741 28.6148 37.892 27.4355 38.6868 26.552C39.085 26.1093 39.3962 25.7383 39.6101 25.4748C39.7172 25.343 39.8 25.2379 39.8575 25.1639C39.8862 25.1269 39.9086 25.0977 39.9245 25.0768L39.9435 25.0518L39.9493 25.0441L39.952 25.0404C40.3491 24.5083 40.3491 23.7768 39.952 23.2447L39.9493 23.2411L39.9435 23.2334L39.9245 23.2084C39.9086 23.1875 39.8862 23.1582 39.8575 23.1213C39.8 23.0473 39.7172 22.9422 39.6101 22.8104C39.3962 22.5469 39.085 22.1758 38.6868 21.7331C37.892 20.8496 36.741 19.6704 35.3142 18.4877C32.5032 16.1577 28.4147 13.6426 23.7504 13.6426ZM38.7504 24.1426C39.9526 25.0396 39.9523 25.04 39.952 25.0404L38.7504 24.1426ZM39.952 23.2447C39.9523 23.2451 39.9526 23.2455 38.7504 24.1426L39.952 23.2447ZM8.75038 24.1426C7.54819 23.2455 7.54847 23.2451 7.54878 23.2447L8.75038 24.1426ZM7.54878 25.0404C7.54847 25.04 7.54819 25.0396 8.75038 24.1426L7.54878 25.0404ZM11.0443 24.5456C10.915 24.4019 10.7963 24.267 10.6887 24.1426C10.7963 24.0181 10.915 23.8833 11.0443 23.7395C11.7676 22.9355 12.8134 21.8648 14.101 20.7974C16.7189 18.6275 20.1304 16.6426 23.7504 16.6426C27.3703 16.6426 30.7819 18.6275 33.3997 20.7974C34.6874 21.8648 35.7332 22.9355 36.4564 23.7395C36.5857 23.8833 36.7045 24.0181 36.8121 24.1426C36.7045 24.267 36.5857 24.4019 36.4564 24.5456C35.7332 25.3496 34.6874 26.4204 33.3997 27.4877C30.7819 29.6577 27.3703 31.6426 23.7504 31.6426C20.1304 31.6426 16.7189 29.6577 14.101 27.4877C12.8134 26.4204 11.7676 25.3496 11.0443 24.5456ZM23.75 18.8926C20.8505 18.8926 18.5 21.2431 18.5 24.1426C18.5 27.0421 20.8505 29.3926 23.75 29.3926C26.6495 29.3926 29 27.0421 29 24.1426C29 21.2431 26.6495 18.8926 23.75 18.8926ZM21.5 24.1426C21.5 22.9 22.5074 21.8926 23.75 21.8926C24.9926 21.8926 26 22.9 26 24.1426C26 25.3852 24.9926 26.3926 23.75 26.3926C22.5074 26.3926 21.5 25.3852 21.5 24.1426Z" fill="white"/>
</svg>
