<svg width="48" height="49" viewBox="0 0 48 49" fill="none" xmlns="http://www.w3.org/2000/svg">
<path fill-rule="evenodd" clip-rule="evenodd" d="M9 8.61426C8.44772 8.61426 8 9.06198 8 9.61426V39.6143C8 40.1666 8.4477 40.6143 9 40.6143H39C39.5523 40.6143 40 40.1666 40 39.6143V30.088C40 28.9834 40.8954 28.088 42 28.088C43.1046 28.088 44 28.9834 44 30.088V39.6143C44 42.3757 41.7615 44.6143 39 44.6143H9C6.2386 44.6143 4 42.3757 4 39.6143V9.61426C4 6.85284 6.23858 4.61426 9 4.61426H18C19.1046 4.61426 20 5.50969 20 6.61426C20 7.71883 19.1046 8.61426 18 8.61426H9ZM26 6.61426C26 5.50969 26.8954 4.61426 28 4.61426H42C43.1046 4.61426 44 5.50969 44 6.61426V20.6143C44 21.7188 43.1046 22.6143 42 22.6143C40.8954 22.6143 40 21.7188 40 20.6143V11.4424L27.214 24.2284C26.433 25.0094 25.1666 25.0094 24.3856 24.2284C23.6045 23.4473 23.6045 22.181 24.3856 21.3999L37.1713 8.61426H28C26.8954 8.61426 26 7.71883 26 6.61426Z" fill="#333333"/>
</svg>
