<svg width="48" height="49" viewBox="0 0 48 49" fill="none" xmlns="http://www.w3.org/2000/svg">
<path fill-rule="evenodd" clip-rule="evenodd" d="M6 3.61426C4.89543 3.61426 4 4.50969 4 5.61426V10.6143C2.89543 10.6143 2 11.5097 2 12.6143V22.8343C2 23.3351 2.18791 23.8177 2.52658 24.1867C2.99069 24.6923 3.48254 25.1611 4.0002 25.5858L4 25.6143V43.6143C4 44.7188 4.89543 45.6143 6 45.6143H19H29H42C43.1046 45.6143 44 44.7188 44 43.6143V25.6143L44 25.6012C44.5251 25.1725 45.0237 24.6985 45.4934 24.1867C45.8321 23.8177 46.02 23.3351 46.02 22.8343V12.6143C46.02 11.5097 45.1246 10.6143 44.02 10.6143H44V5.61426C44 4.50969 43.1046 3.61426 42 3.61426H6ZM31 41.6143H40V27.7426C39.1526 27.9843 38.2675 28.1143 37.35 28.1143C34.8415 28.1143 32.5859 27.1492 30.68 25.5856C28.7741 27.1492 26.5185 28.1143 24.01 28.1143C21.5015 28.1143 19.2459 27.1492 17.34 25.5856C15.4341 27.1492 13.1785 28.1143 10.67 28.1143C9.74391 28.1143 8.85228 27.9827 8 27.7381V41.6143H17V35.6143C17 34.5097 17.8954 33.6143 19 33.6143H29C30.1046 33.6143 31 34.5097 31 35.6143V41.6143ZM21 41.6143H27V37.6143H21V41.6143ZM6 22.0188V14.6143H42H42.02V22.0186C40.5382 23.4277 38.9411 24.1143 37.35 24.1143C35.5597 24.1143 33.7806 23.2547 32.1534 21.4818C31.7746 21.0692 31.2402 20.8343 30.68 20.8343C30.1198 20.8343 29.5854 21.0692 29.2066 21.4818C27.5794 23.2547 25.8002 24.1143 24.01 24.1143C22.2198 24.1143 20.4406 23.2547 18.8134 21.4818C18.4346 21.0692 17.9002 20.8343 17.34 20.8343C16.7798 20.8343 16.2454 21.0692 15.8666 21.4818C14.2394 23.2547 12.4602 24.1143 10.67 24.1143C9.07102 24.1143 7.48092 23.4285 6 22.0188ZM8 10.6143H40V7.61426H8V10.6143Z" fill="#333333"/>
</svg>
