<svg width="24" height="24" viewBox="0 0 24 24" fill="none" xmlns="http://www.w3.org/2000/svg">
<path fill-rule="evenodd" clip-rule="evenodd" d="M10.5 5C10.5 4.17157 11.1716 3.5 12 3.5C12.8284 3.5 13.5 4.17157 13.5 5C13.5 5.82843 12.8284 6.5 12 6.5C11.1716 6.5 10.5 5.82843 10.5 5ZM15.3322 8.02439C16.0578 7.2254 16.5 6.16434 16.5 5C16.5 2.51472 14.4853 0.5 12 0.5C9.51472 0.5 7.5 2.51472 7.5 5C7.5 6.16434 7.94221 7.2254 8.66783 8.02439L3.67929 17.2889C3.42899 17.7537 3.4415 18.3159 3.71223 18.7692C3.98296 19.2224 4.47204 19.5 5 19.5H8V22C8 22.8284 8.67157 23.5 9.5 23.5C10.3284 23.5 11 22.8284 11 22V19.5H13V22C13 22.8284 13.6716 23.5 14.5 23.5C15.3284 23.5 16 22.8284 16 22V19.5H19C19.528 19.5 20.017 19.2224 20.2878 18.7692C20.5585 18.3159 20.571 17.7537 20.3207 17.2889L15.3322 8.02439ZM9.5 16.5H14.5H16.4887L12.7195 9.5H12H11.2805L7.51132 16.5H9.5Z" fill="#FD4391"/>
</svg>
