<svg width="37" height="37" viewBox="0 0 37 37" fill="none" xmlns="http://www.w3.org/2000/svg">
<path fill-rule="evenodd" clip-rule="evenodd" d="M18.9502 5.55713C15.3603 5.55713 12.4502 8.46728 12.4502 12.0571V15.5571H10.9502C9.0172 15.5571 7.4502 17.1241 7.4502 19.0571V27.0571C7.4502 28.9901 9.0172 30.5571 10.9502 30.5571H26.9502C28.8832 30.5571 30.4502 28.9901 30.4502 27.0571V19.0571C30.4502 17.1241 28.8832 15.5571 26.9502 15.5571H25.4502V12.0571C25.4502 8.46728 22.54 5.55713 18.9502 5.55713ZM22.4502 15.5571V12.0571C22.4502 10.1241 20.8832 8.55713 18.9502 8.55713C17.0172 8.55713 15.4502 10.1241 15.4502 12.0571V15.5571H22.4502ZM14.8593 18.5571H10.9502C10.6741 18.5571 10.4502 18.781 10.4502 19.0571V27.0571C10.4502 27.3333 10.6741 27.5571 10.9502 27.5571H26.9502C27.2263 27.5571 27.4502 27.3333 27.4502 27.0571V19.0571C27.4502 18.781 27.2263 18.5571 26.9502 18.5571H23.0411H14.8593Z" fill="#333333"/>
</svg>
