<svg width="25" height="24" viewBox="0 0 25 24" fill="none" xmlns="http://www.w3.org/2000/svg">
<path fill-rule="evenodd" clip-rule="evenodd" d="M10.9502 5.5C10.9502 4.39543 11.8456 3.5 12.9502 3.5C14.0548 3.5 14.9502 4.39543 14.9502 5.5C14.9502 6.60457 14.0548 7.5 12.9502 7.5C11.8456 7.5 10.9502 6.60457 10.9502 5.5ZM12.9502 0.5C10.1888 0.5 7.9502 2.73858 7.9502 5.5C7.9502 8.26142 10.1888 10.5 12.9502 10.5C15.7116 10.5 17.9502 8.26142 17.9502 5.5C17.9502 2.73858 15.7116 0.5 12.9502 0.5ZM4.9502 11.5C4.38691 11.5 3.8711 11.8156 3.61466 12.3171C3.35822 12.8187 3.40438 13.4216 3.73418 13.8782L10.2342 22.8782C10.5162 23.2687 10.9685 23.5 11.4502 23.5H14.4502C14.9319 23.5 15.3842 23.2687 15.6662 22.8782L22.1662 13.8782C22.496 13.4216 22.5422 12.8187 22.2857 12.3171C22.0293 11.8156 21.5135 11.5 20.9502 11.5H4.9502ZM12.2172 20.5L7.88383 14.5H18.0166L13.6832 20.5H12.2172Z" fill="#5243FD"/>
</svg>
