<svg width="48" height="49" viewBox="0 0 48 49" fill="none" xmlns="http://www.w3.org/2000/svg">
<path fill-rule="evenodd" clip-rule="evenodd" d="M33.5163 3.19287C32.964 2.23628 31.7408 1.90853 30.7842 2.46082L17.3919 10.1929H6C3.79088 10.1929 2 11.9837 2 14.1929V42.1929C2 44.4021 3.79088 46.1929 6 46.1929H42C44.2092 46.1929 46 44.402 46 42.1929V40.6929V33.1929V23.1929V16.6929V14.1929C46 11.9837 44.2092 10.1929 42 10.1929H37.5577L33.5163 3.19287ZM42 16.6929V14.1929H6V42.1929H42V40.6929V35.1929H35.25C31.339 35.1929 28 32.1497 28 28.1929C28 24.2361 31.339 21.1929 35.25 21.1929H42V16.6929ZM42 25.1929H35.25C33.362 25.1929 32 26.6269 32 28.1929C32 29.7589 33.362 31.1929 35.25 31.1929H42V25.1929ZM32.9303 10.178L25.4317 10.1699L31.0522 6.92492L32.9303 10.178Z" fill="#333333"/>
</svg>
