<svg width="48" height="49" viewBox="0 0 48 49" fill="none" xmlns="http://www.w3.org/2000/svg">
<path fill-rule="evenodd" clip-rule="evenodd" d="M4 6.61426C4 5.50969 4.89543 4.61426 6 4.61426H20C21.1046 4.61426 22 5.50969 22 6.61426V20.6143C22 21.7188 21.1046 22.6143 20 22.6143H6C4.89543 22.6143 4 21.7188 4 20.6143V6.61426ZM8 8.61426V18.6143H18V8.61426H8ZM4 28.6143C4 27.5097 4.89543 26.6143 6 26.6143H20C21.1046 26.6143 22 27.5097 22 28.6143V42.6143C22 43.7188 21.1046 44.6143 20 44.6143H6C4.89543 44.6143 4 43.7188 4 42.6143V28.6143ZM8 30.6143V40.6143H18V30.6143H8ZM28 4.61426C26.8954 4.61426 26 5.50969 26 6.61426V20.6143C26 21.7188 26.8954 22.6143 28 22.6143H42C43.1046 22.6143 44 21.7188 44 20.6143V6.61426C44 5.50969 43.1046 4.61426 42 4.61426H28ZM30 18.6143V8.61426H40V18.6143H30ZM29 26.6143C30.1046 26.6143 31 27.5097 31 28.6143V42.6143C31 43.7188 30.1046 44.6143 29 44.6143C27.8954 44.6143 27 43.7188 27 42.6143V28.6143C27 27.5097 27.8954 26.6143 29 26.6143ZM43 28.6143C43 27.5097 42.1046 26.6143 41 26.6143C39.8954 26.6143 39 27.5097 39 28.6143V42.6143C39 43.7188 39.8954 44.6143 41 44.6143C42.1046 44.6143 43 43.7188 43 42.6143V28.6143Z" fill="#333333"/>
</svg>
