<svg width="48" height="49" viewBox="0 0 48 49" fill="none" xmlns="http://www.w3.org/2000/svg">
<path fill-rule="evenodd" clip-rule="evenodd" d="M21.0291 4.61426H32.975C32.993 4.61401 33.0111 4.61401 33.0291 4.61426H39C41.7615 4.61426 44 6.85286 44 9.61426V15.6143V39.6143C44 42.3757 41.7615 44.6143 39 44.6143H9C6.2386 44.6143 4 42.3757 4 39.6143V15.6143V9.61426C4 6.85284 6.23858 4.61426 9 4.61426H20.975C20.993 4.61401 21.0111 4.61401 21.0291 4.61426ZM18.7373 13.6143L22.0706 8.61426H29.2632L25.9299 13.6143H18.7373ZM14.9672 17.6143C14.988 17.6146 15.0088 17.6146 15.0295 17.6143H26.9672C26.988 17.6146 27.0088 17.6146 27.0295 17.6143H40V39.6143C40 40.1666 39.5523 40.6143 39 40.6143H9C8.4477 40.6143 8 40.1666 8 39.6143V17.6143H14.9672ZM13.9299 13.6143H8V9.61426C8 9.06198 8.44772 8.61426 9 8.61426H17.2632L13.9299 13.6143ZM34.0706 8.61426L30.7373 13.6143H40V9.61426C40 9.06196 39.5523 8.61426 39 8.61426H34.0706ZM19.5 20.82C20.1188 20.4627 20.8812 20.4627 21.5 20.82L32 26.8822C32.6188 27.2395 33 27.8997 33 28.6143C33 29.3288 32.6188 29.989 32 30.3463L21.5 36.4085C20.8812 36.7658 20.1188 36.7658 19.5 36.4085C18.8812 36.0512 18.5 35.391 18.5 34.6765V22.5521C18.5 21.8375 18.8812 21.1773 19.5 20.82ZM22.5 31.2124L27 28.6143L22.5 26.0162V31.2124Z" fill="#333333"/>
</svg>
