<svg width="49" height="49" viewBox="0 0 49 49" fill="none" xmlns="http://www.w3.org/2000/svg">
<path fill-rule="evenodd" clip-rule="evenodd" d="M44.3301 24.8181C44.3301 35.8638 35.3758 44.8181 24.3301 44.8181C13.2844 44.8181 4.33008 35.8638 4.33008 24.8181C4.33008 13.7724 13.2844 4.81812 24.3301 4.81812C35.3758 4.81812 44.3301 13.7724 44.3301 24.8181ZM48.3301 24.8181C48.3301 38.0729 37.5849 48.8181 24.3301 48.8181C11.0752 48.8181 0.330078 38.0729 0.330078 24.8181C0.330078 11.5633 11.0752 0.818115 24.3301 0.818115C37.5849 0.818115 48.3301 11.5633 48.3301 24.8181ZM26.3301 15.8181C26.3301 14.7135 25.4346 13.8181 24.3301 13.8181C23.2255 13.8181 22.3301 14.7135 22.3301 15.8181V22.8181H15.3301C14.2255 22.8181 13.3301 23.7135 13.3301 24.8181C13.3301 25.9227 14.2255 26.8181 15.3301 26.8181H22.3301V33.8181C22.3301 34.9227 23.2255 35.8181 24.3301 35.8181C25.4346 35.8181 26.3301 34.9227 26.3301 33.8181V26.8181H33.3301C34.4346 26.8181 35.3301 25.9227 35.3301 24.8181C35.3301 23.7135 34.4346 22.8181 33.3301 22.8181H26.3301V15.8181Z" fill="#333333"/>
</svg>
