<svg width="48" height="49" viewBox="0 0 48 49" fill="none" xmlns="http://www.w3.org/2000/svg">
<path fill-rule="evenodd" clip-rule="evenodd" d="M6 8.81812C6 7.71355 6.89543 6.81812 8 6.81812H16C17.1046 6.81812 18 7.71355 18 8.81812C18 9.92268 17.1046 10.8181 16 10.8181H10V16.8181C10 17.9227 9.10457 18.8181 8 18.8181C6.89543 18.8181 6 17.9227 6 16.8181V8.81812ZM8 30.8181C9.10457 30.8181 10 31.7135 10 32.8181V38.8181H16C17.1046 38.8181 18 39.7135 18 40.8181C18 41.9227 17.1046 42.8181 16 42.8181H8C6.89543 42.8181 6 41.9227 6 40.8181V32.8181C6 31.7135 6.89543 30.8181 8 30.8181ZM42 32.8181C42 31.7135 41.1046 30.8181 40 30.8181C38.8954 30.8181 38 31.7135 38 32.8181V38.8181H32C30.8954 38.8181 30 39.7135 30 40.8181C30 41.9227 30.8954 42.8181 32 42.8181H40C41.1046 42.8181 42 41.9227 42 40.8181V32.8181ZM30 8.81812C30 7.71355 30.8954 6.81812 32 6.81812H40C41.1046 6.81812 42 7.71355 42 8.81812V16.8181C42 17.9227 41.1046 18.8181 40 18.8181C38.8954 18.8181 38 17.9227 38 16.8181V10.8181H32C30.8954 10.8181 30 9.92268 30 8.81812ZM11.5557 22.8181C10.4511 22.8181 9.55566 23.7135 9.55566 24.8181C9.55566 25.9227 10.4511 26.8181 11.5557 26.8181H36.4446C37.5491 26.8181 38.4446 25.9227 38.4446 24.8181C38.4446 23.7135 37.5491 22.8181 36.4446 22.8181H11.5557Z" fill="#333333"/>
</svg>
