<svg width="49" height="49" viewBox="0 0 49 49" fill="none" xmlns="http://www.w3.org/2000/svg">
<g clip-path="url(#clip0_4986_160498)">
<path d="M24.6934 3.81812C23.44 3.81812 22.2578 4.29937 21.3689 5.17437C20.48 6.04937 19.9911 7.21312 19.9911 8.45562C19.9911 9.16437 20.1689 9.83812 20.4711 10.4506C18.6134 11.0806 16.8978 12.1044 15.4756 13.5131C13.0134 15.9456 11.6534 19.1744 11.6534 22.6131V27.3031C11.6534 31.6344 9.72447 33.7869 9.28003 34.2244C8.90669 34.5394 8.69336 34.9856 8.69336 35.4844C8.69336 37.8469 11.84 38.8006 14.2134 39.3169C15.2 39.5356 16.3111 39.7106 17.4845 39.8594C18.0978 43.2369 21.0934 45.8181 24.6934 45.8181C26.7111 45.8181 28.5422 45.0131 29.8667 43.7006C30.9067 42.6769 31.6267 41.3381 31.8934 39.8506C35.4045 39.4219 38.5511 38.6344 39.8578 37.3394C40.5511 36.6569 40.6934 35.9481 40.6934 35.4756C40.6934 34.9944 40.48 34.5481 40.1245 34.2331C39.9822 34.1019 37.7422 31.9669 37.7422 27.3031V22.6131C37.7422 16.9781 34.0445 12.1919 28.9245 10.4594C29.2267 9.83812 29.4045 9.16437 29.4045 8.45562C29.4045 5.90062 27.2889 3.81812 24.6934 3.81812ZM23.7689 9.37437C23.52 9.12937 23.3867 8.80562 23.3867 8.45562C23.3867 8.10562 23.52 7.78187 23.7689 7.53687C24.0178 7.29187 24.3467 7.16062 24.6934 7.16062C25.4134 7.16062 26.0089 7.73812 26.0089 8.45562C26.0089 9.14687 25.3956 9.75062 24.6934 9.75062C24.6934 9.75062 24.6934 9.75062 24.6845 9.75062C24.3378 9.75062 24.0089 9.61937 23.7689 9.37437ZM24.6934 42.4756C23.6445 42.4756 22.6578 42.0731 21.9111 41.3381C21.5645 40.9969 21.2978 40.6031 21.1022 40.1744C22.2667 40.2356 23.4578 40.2706 24.6845 40.2706C25.8311 40.2706 27.04 40.2356 28.2667 40.1656C27.6622 41.5219 26.2934 42.4756 24.6934 42.4756Z" fill="#333333"/>
</g>
<defs>
<clipPath id="clip0_4986_160498">
<rect width="32" height="42" fill="white" transform="translate(8.69336 3.81812)"/>
</clipPath>
</defs>
</svg>
