<svg width="49" height="49" viewBox="0 0 49 49" fill="none" xmlns="http://www.w3.org/2000/svg">
<g clip-path="url(#clip0_4986_160499)">
<path fill-rule="evenodd" clip-rule="evenodd" d="M42.0797 8.3837L42.6934 12.9883C42.2597 14.3697 41.6706 15.3576 41.057 15.9437V38.6321H42.6934V42.8181H6.69336V38.6321H8.32972V15.9437C7.307 15.3576 6.69336 12.9883 6.69336 12.9883L7.307 8.3837C7.42154 7.48788 8.16609 6.81812 9.04972 6.81812H40.3288C41.2206 6.81812 41.9652 7.48788 42.0797 8.3837ZM36.9661 15.6256C36.0988 15.0395 35.477 14.0432 35.477 12.6367C35.477 17.4507 28.2852 17.4507 28.2852 12.6367C28.2852 17.4507 21.0934 17.4507 21.0934 12.6367C21.0934 17.4507 13.9015 17.4507 13.9015 12.6367C13.9015 14.0432 13.2879 15.0395 12.4125 15.6256V23.5623H36.9579L36.9661 15.6256Z" fill="#333333"/>
</g>
<defs>
<clipPath id="clip0_4986_160499">
<rect width="36" height="36" fill="white" transform="translate(6.69336 6.81812)"/>
</clipPath>
</defs>
</svg>
