<svg width="49" height="49" viewBox="0 0 49 49" fill="none" xmlns="http://www.w3.org/2000/svg">
<path fill-rule="evenodd" clip-rule="evenodd" d="M9.4541 7.81812C8.34953 7.81812 7.4541 8.71355 7.4541 9.81812V17.8181C7.4541 18.9227 8.34953 19.8181 9.4541 19.8181H17.4541C18.5587 19.8181 19.4541 18.9227 19.4541 17.8181V9.81812C19.4541 8.71355 18.5587 7.81812 17.4541 7.81812H9.4541ZM11.4541 15.8181V11.8181H15.4541V15.8181H11.4541ZM9.4541 29.8181C8.34953 29.8181 7.4541 30.7135 7.4541 31.8181V39.8181C7.4541 40.9227 8.34953 41.8181 9.4541 41.8181H17.4541C18.5587 41.8181 19.4541 40.9227 19.4541 39.8181V31.8181C19.4541 30.7135 18.5587 29.8181 17.4541 29.8181H9.4541ZM11.4541 37.8181V33.8181H15.4541V37.8181H11.4541ZM29.4541 31.8181C29.4541 30.7135 30.3495 29.8181 31.4541 29.8181H39.4541C40.5587 29.8181 41.4541 30.7135 41.4541 31.8181V39.8181C41.4541 40.9227 40.5587 41.8181 39.4541 41.8181H31.4541C30.3495 41.8181 29.4541 40.9227 29.4541 39.8181V31.8181ZM33.4541 33.8181V37.8181H37.4541V33.8181H33.4541ZM31.4541 7.81812C30.3495 7.81812 29.4541 8.71355 29.4541 9.81812V17.8181C29.4541 18.9227 30.3495 19.8181 31.4541 19.8181H39.4541C40.5587 19.8181 41.4541 18.9227 41.4541 17.8181V9.81812C41.4541 8.71355 40.5587 7.81812 39.4541 7.81812H31.4541ZM33.4541 15.8181V11.8181H37.4541V15.8181H33.4541ZM24.4541 7.81812C25.5587 7.81812 26.4541 8.71355 26.4541 9.81812V24.8181C26.4541 25.9227 25.5587 26.8181 24.4541 26.8181H9.4541C8.34953 26.8181 7.4541 25.9227 7.4541 24.8181C7.4541 23.7135 8.34953 22.8181 9.4541 22.8181H22.4541V9.81812C22.4541 8.71355 23.3495 7.81812 24.4541 7.81812ZM26.4541 31.8181C26.4541 30.7135 25.5587 29.8181 24.4541 29.8181C23.3495 29.8181 22.4541 30.7135 22.4541 31.8181V39.8181C22.4541 40.9227 23.3495 41.8181 24.4541 41.8181C25.5587 41.8181 26.4541 40.9227 26.4541 39.8181V31.8181ZM31.4541 22.8181C30.3495 22.8181 29.4541 23.7135 29.4541 24.8181C29.4541 25.9227 30.3495 26.8181 31.4541 26.8181H39.4541C40.5587 26.8181 41.4541 25.9227 41.4541 24.8181C41.4541 23.7135 40.5587 22.8181 39.4541 22.8181H31.4541Z" fill="#333333"/>
</svg>
