<svg width="25" height="25" viewBox="0 0 25 25" fill="none" xmlns="http://www.w3.org/2000/svg">
<path d="M3.51465 3.30867L19.8058 22.9198" stroke="#333333" stroke-width="2" stroke-linecap="round" stroke-linejoin="round"/>
<mask id="path-2-inside-1_4986_160507" fill="white">
<path d="M12.6602 1.36426C11.5556 1.36426 10.6602 2.25969 10.6602 3.36426H14.6602C14.6602 2.25969 13.7647 1.36426 12.6602 1.36426Z"/>
</mask>
<path d="M10.6602 3.36426H8.66016V5.36426H10.6602V3.36426ZM14.6602 3.36426V5.36426H16.6602V3.36426H14.6602ZM12.6602 -0.635742C10.451 -0.635742 8.66016 1.15511 8.66016 3.36426H12.6602V-0.635742ZM10.6602 5.36426H14.6602V1.36426H10.6602V5.36426ZM16.6602 3.36426C16.6602 1.15511 14.8693 -0.635742 12.6602 -0.635742V3.36426H16.6602Z" fill="#333333" mask="url(#path-2-inside-1_4986_160507)"/>
<path d="M9.19531 19.3643C9.43791 21.0604 10.8967 22.3643 12.6599 22.3643C14.4231 22.3643 15.8818 21.0604 16.1244 19.3643H9.19531Z" stroke="#333333" stroke-width="2" stroke-linecap="round" stroke-linejoin="round"/>
<path d="M15.6602 19.3643H3.66016C3.66016 19.3643 5.93271 17.4705 6.52195 12.3643" stroke="#333333" stroke-width="2" stroke-linecap="round" stroke-linejoin="round"/>
<path d="M21.6598 19.3643C21.6598 19.3643 18.6598 16.8643 18.6598 9.86426C18.6598 6.55056 15.9735 3.86426 12.6598 3.86426C11.3898 3.86426 10.2119 4.25885 9.24219 4.93211" stroke="#333333" stroke-width="2" stroke-linecap="round" stroke-linejoin="round"/>
</svg>
