<svg width="31" height="31" viewBox="0 0 31 31" fill="none" xmlns="http://www.w3.org/2000/svg">
<path d="M15.3301 0.182129C7.04258 0.182129 0.330078 5.39122 0.330078 14.2412C0.330078 21.6594 6.45508 26.7458 13.8301 27.2776C14.4926 27.3321 13.8301 30.1821 13.8301 30.1821C22.1176 30.1821 30.3301 22.2458 30.3301 14.2412C30.3301 6.23668 23.6176 0.182129 15.3301 0.182129ZM7.83008 16.5458C6.45508 16.5458 5.33008 15.3185 5.33008 13.8185C5.33008 12.3185 6.45508 11.0912 7.83008 11.0912C9.20508 11.0912 10.3301 12.3185 10.3301 13.8185C10.3301 15.3185 9.20508 16.5458 7.83008 16.5458ZM15.3301 16.5458C13.9551 16.5458 12.8301 15.3185 12.8301 13.8185C12.8301 12.3185 13.9551 11.0912 15.3301 11.0912C16.7051 11.0912 17.8301 12.3185 17.8301 13.8185C17.8301 15.3185 16.7051 16.5458 15.3301 16.5458ZM22.8301 16.5458C21.4551 16.5458 20.3301 15.3185 20.3301 13.8185C20.3301 12.3185 21.4551 11.0912 22.8301 11.0912C24.2051 11.0912 25.3301 12.3185 25.3301 13.8185C25.3301 15.3185 24.2051 16.5458 22.8301 16.5458Z" fill="#666666"/>
<path d="M15.3301 0.182129C7.04258 0.182129 0.330078 5.39122 0.330078 14.2412C0.330078 21.6594 6.45508 26.7458 13.8301 27.2776C14.4926 27.3321 13.8301 30.1821 13.8301 30.1821C22.1176 30.1821 30.3301 22.2458 30.3301 14.2412C30.3301 6.23668 23.6176 0.182129 15.3301 0.182129ZM7.83008 16.5458C6.45508 16.5458 5.33008 15.3185 5.33008 13.8185C5.33008 12.3185 6.45508 11.0912 7.83008 11.0912C9.20508 11.0912 10.3301 12.3185 10.3301 13.8185C10.3301 15.3185 9.20508 16.5458 7.83008 16.5458ZM15.3301 16.5458C13.9551 16.5458 12.8301 15.3185 12.8301 13.8185C12.8301 12.3185 13.9551 11.0912 15.3301 11.0912C16.7051 11.0912 17.8301 12.3185 17.8301 13.8185C17.8301 15.3185 16.7051 16.5458 15.3301 16.5458ZM22.8301 16.5458C21.4551 16.5458 20.3301 15.3185 20.3301 13.8185C20.3301 12.3185 21.4551 11.0912 22.8301 11.0912C24.2051 11.0912 25.3301 12.3185 25.3301 13.8185C25.3301 15.3185 24.2051 16.5458 22.8301 16.5458Z" fill="black" fill-opacity="0.2"/>
</svg>
