<svg width="45" height="44" viewBox="0 0 45 44" fill="none" xmlns="http://www.w3.org/2000/svg">
<path d="M31.233 13H12.9721C12.4938 13 12.1025 13.392 12.1025 13.871V27.8076C12.1025 28.2867 12.4938 28.6787 12.9721 28.6787H16.0156V30.129C16.0156 30.4295 16.1721 30.7126 16.4286 30.8693C16.5678 30.9564 16.7286 31 16.8851 31C17.0199 31 17.1504 30.9695 17.2765 30.9085L21.7199 28.6787H31.233C31.7112 28.6787 32.1025 28.2867 32.1025 27.8076V13.871C32.1025 13.392 31.7112 13 31.233 13ZM18.1895 21.7104C18.1895 22.1895 17.7982 22.5814 17.3199 22.5814C16.8417 22.5814 16.4504 22.1895 16.4504 21.7104V19.9683C16.4504 19.4892 16.8417 19.0973 17.3199 19.0973C17.7982 19.0973 18.1895 19.4892 18.1895 19.9683V21.7104ZM22.9721 21.7104C22.9721 22.1895 22.5808 22.5814 22.1025 22.5814C21.6243 22.5814 21.233 22.1895 21.233 21.7104V19.9683C21.233 19.4892 21.6243 19.0973 22.1025 19.0973C22.5808 19.0973 22.9721 19.4892 22.9721 19.9683V21.7104ZM27.7547 21.7104C27.7547 22.1895 27.3634 22.5814 26.8851 22.5814C26.4069 22.5814 26.0156 22.1895 26.0156 21.7104V19.9683C26.0156 19.4892 26.4069 19.0973 26.8851 19.0973C27.3634 19.0973 27.7547 19.4892 27.7547 19.9683V21.7104Z" fill="white"/>
</svg>
