<svg width="81" height="81" viewBox="0 0 81 81" fill="none" xmlns="http://www.w3.org/2000/svg">
<path fill-rule="evenodd" clip-rule="evenodd" d="M43.4833 7.16932C42.919 6.03243 41.7581 5.31462 40.4889 5.31788C39.2197 5.32114 38.0624 6.04491 37.504 7.18469L28.0897 26.4008L6.68809 29.5042C5.43311 29.6862 4.3901 30.5645 3.99716 31.7702C3.60423 32.9759 3.92945 34.3001 4.83621 35.1866L20.3438 50.3474L16.6408 71.4073C16.42 72.6628 16.9347 73.9343 17.9666 74.6828C18.9985 75.4313 20.367 75.5257 21.4919 74.926L40.4976 64.7939L59.5076 74.9261C60.6318 75.5254 61.9993 75.4314 63.031 74.6839C64.0627 73.9365 64.5782 72.6664 64.3591 71.4114L60.6827 50.3475L76.1654 35.1845C77.0707 34.298 77.395 32.9748 77.0023 31.77C76.6097 30.5653 75.5679 29.6874 74.3141 29.5046L53.0279 26.4008L43.4833 7.16932Z" fill="white"/>
</svg>
