<svg width="48" height="49" viewBox="0 0 48 49" fill="none" xmlns="http://www.w3.org/2000/svg">
<path d="M40.5639 37.1651C39.6537 37.2739 37.0214 33.0447 37.0214 33.0447C37.0214 35.4935 35.7472 38.689 32.99 40.9967C34.32 41.4024 37.3208 42.4941 36.607 43.6859C36.0292 44.6502 26.6956 44.3016 24.0011 44.0013C21.3065 44.3016 11.9729 44.6502 11.3952 43.6859C10.6809 42.4945 13.6788 41.4035 15.0106 40.9972C12.253 38.6895 10.9786 35.4937 10.9786 33.0447C10.9786 33.0447 8.34624 37.2739 7.43613 37.1651C7.01207 37.1143 6.45503 34.8492 8.17425 29.3757C8.98454 26.7957 9.91116 24.6509 11.3444 21.1118C11.1031 11.979 14.9172 4.31834 24 4.31787C32.9816 4.31834 36.8841 11.8283 36.6558 21.1118C38.0865 24.6449 39.0179 26.8032 39.8259 29.3757C41.5449 34.8492 40.988 37.1142 40.5639 37.1651V37.1651Z" fill="black"/>
</svg>
