<svg width="81" height="81" viewBox="0 0 81 81" fill="none" xmlns="http://www.w3.org/2000/svg">
<path d="M71.3152 10.3179H9.68478C8.07065 10.3179 6.75 11.6244 6.75 13.2213V59.6767C6.75 61.2736 8.07065 62.5801 9.68478 62.5801H19.9565V67.4144C19.9565 68.4161 20.4848 69.3597 21.3505 69.8823C21.8201 70.1727 22.363 70.3179 22.8913 70.3179C23.3462 70.3179 23.7864 70.2162 24.212 70.013L39.2087 62.5801H71.3152C72.9293 62.5801 74.25 61.2736 74.25 59.6767V13.2213C74.25 11.6244 72.9293 10.3179 71.3152 10.3179ZM27.2935 39.3525C27.2935 40.9494 25.9728 42.2559 24.3587 42.2559C22.7446 42.2559 21.4239 40.9494 21.4239 39.3525V33.5455C21.4239 31.9486 22.7446 30.6421 24.3587 30.6421C25.9728 30.6421 27.2935 31.9486 27.2935 33.5455V39.3525ZM43.4348 39.3525C43.4348 40.9494 42.1141 42.2559 40.5 42.2559C38.8859 42.2559 37.5652 40.9494 37.5652 39.3525V33.5455C37.5652 31.9486 38.8859 30.6421 40.5 30.6421C42.1141 30.6421 43.4348 31.9486 43.4348 33.5455V39.3525ZM59.5761 39.3525C59.5761 40.9494 58.2554 42.2559 56.6413 42.2559C55.0272 42.2559 53.7065 40.9494 53.7065 39.3525V33.5455C53.7065 31.9486 55.0272 30.6421 56.6413 30.6421C58.2554 30.6421 59.5761 31.9486 59.5761 33.5455V39.3525Z" fill="white"/>
</svg>
