<svg width="48" height="49" viewBox="0 0 48 49" fill="none" xmlns="http://www.w3.org/2000/svg">
<path d="M32.4783 18.9293V5.19475C32.4783 5.19475 25.7549 1.59175 17.9064 4.36983L32.4783 18.9293ZM33.7512 27.0094V5.76187C33.7512 5.76187 41.6994 9.36249 43.9393 18.1092L33.7512 27.0094ZM29.4753 33.1853L44.148 19.3921C44.148 19.3921 46.7442 23.6114 42.8726 33.1853H29.4753ZM21.9831 34.9341H41.8002C41.8002 34.9341 39.4079 41.416 30.8455 44.0921L21.9831 34.9341ZM15.5141 30.5584V43.4712C15.5141 43.4712 20.6609 46.7659 29.4753 44.5538L15.5141 30.5584ZM4.04953 31.2263L14.0876 22.223V42.6978C14.0876 42.6978 8.02304 40.5934 4.04953 31.2263ZM3.79515 29.7863C3.79515 29.7863 1.49896 22.38 4.71056 15.9474H18.5171L3.79515 29.7863ZM5.57799 14.5038C5.57799 14.5038 8.48253 7.92125 16.3792 4.83266L25.803 14.5038H5.57799Z" fill="black"/>
</svg>
