<svg width="41" height="41" viewBox="0 0 41 41" fill="none" xmlns="http://www.w3.org/2000/svg">
<g clip-path="url(#clip0_4986_159614)">
<path d="M13.47 19.8525L11.8779 31.0332C11.7706 31.8203 11.4366 32.4703 10.8761 32.9712C10.3156 33.4721 9.68351 33.7285 8.97987 33.7285H0.411L2.90355 29.93H5.96258L6.82126 23.7285H0.25L2.4921 12.5061H8.57439L9.06336 9.03557H2.98107L3.51178 5.1596H15.4677L13.9173 16.382H7.34601L6.52907 19.8525H13.47V19.8525ZM24.1498 30.0254C24.1498 31.3492 24.442 32.5955 24.9608 33.7285H19.3496L20.0413 28.6659H12.9393L13.47 25.0344H20.572L20.8165 23.156H14.0007L16.1236 8.26038H18.6519L18.2882 4.54541H24.3287L24.6984 8.26038H27.3102L28.4909 5.40409L27.7992 4.54541H34.7759L33.1421 8.26038H35.5094L33.6787 21.1107C33.482 21.0988 33.2911 21.0809 33.0944 21.0809C30.9179 21.0809 28.9202 21.862 27.3699 23.156H26.696L26.6006 23.8895C25.086 25.4935 24.1498 27.6462 24.1498 30.0254ZM28.0019 13.973H29.3078L29.6358 11.6891H28.2882L28.0019 13.973ZM27.185 19.6021H28.4909L28.8189 17.193H27.5547L27.185 19.6021ZM21.6752 17.199H20.244L19.9161 19.608H21.3055L21.6752 17.199ZM22.4086 11.6891H21.061L20.733 13.973H22.1224L22.4086 11.6891ZM40.25 30.0254C40.25 33.973 37.0419 37.1811 33.0944 37.1811C29.1468 37.1811 25.9387 33.973 25.9387 30.0254C25.9387 26.0779 29.1468 22.8698 33.0944 22.8698C37.0419 22.8698 40.25 26.0779 40.25 30.0254ZM34.0186 33.478L29.6418 29.1012C29.5642 29.3934 29.5165 29.7034 29.5165 30.0254C29.5165 31.9992 31.1206 33.6033 33.0944 33.6033C33.4164 33.6033 33.7264 33.5555 34.0186 33.478ZM36.6722 30.0254C36.6722 28.0517 35.0681 26.4476 33.0944 26.4476C32.7724 26.4476 32.4682 26.4953 32.1701 26.5728L36.547 30.9497C36.6304 30.6516 36.6722 30.3474 36.6722 30.0254Z" fill="#333333"/>
</g>
<defs>
<clipPath id="clip0_4986_159614">
<rect width="40" height="40" fill="white" transform="translate(0.25 0.908936)"/>
</clipPath>
</defs>
</svg>
