<svg width="48" height="49" viewBox="0 0 48 49" fill="none" xmlns="http://www.w3.org/2000/svg">
<path d="M37.5693 26.189C38.2846 26.7454 38.788 27.4144 39.0795 28.196C39.3709 28.9776 39.4901 29.7923 39.4372 30.6401C39.3842 31.4879 39.1987 32.3358 38.8808 33.1836C38.5628 34.0314 38.1522 34.7998 37.6488 35.4887C36.7479 36.7339 35.7279 37.7937 34.5886 38.668C33.4493 39.5424 32.2703 40.271 31.0516 40.8539C29.8328 41.4367 28.6074 41.8938 27.3754 42.225C26.1434 42.5561 24.9842 42.8012 23.898 42.9602C22.8117 43.1192 21.838 43.2185 20.9769 43.2583C20.1158 43.298 19.4468 43.3179 18.9699 43.3179C18.493 43.3179 17.8571 43.2848 17.0623 43.2185C16.2675 43.1523 15.3865 43.0198 14.4194 42.8211C13.4524 42.6224 12.439 42.3442 11.3792 41.9865C10.3194 41.6288 9.28607 41.1585 8.27927 40.5757C7.27247 39.9928 6.31203 39.2774 5.39796 38.4296C4.48389 37.5817 3.70891 36.5617 3.07304 35.3694C2.64912 34.6011 2.3643 33.7797 2.21858 32.9054C2.07286 32.0311 2 30.9183 2 29.5671C2 28.9842 2.09936 28.3218 2.29807 27.58C2.49678 26.8381 2.84783 26.0168 3.35124 25.1159C3.85464 24.2151 4.5435 23.2348 5.41783 22.175C6.29216 21.1152 7.40494 19.9495 8.75618 18.6777C10.0809 17.4324 11.452 16.3263 12.8695 15.3592C14.287 14.3922 15.8038 13.6437 17.42 13.1138C18.1618 12.8488 18.9832 12.7031 19.884 12.6766C20.7848 12.6501 21.5267 12.7959 22.1096 13.1138C22.3745 13.4052 22.6262 13.7033 22.8647 14.008C23.1031 14.3127 23.2621 14.6902 23.3416 15.1406C23.421 15.5116 23.4277 15.8692 23.3614 16.2137C23.2952 16.5581 23.2223 16.9025 23.1429 17.247C23.0634 17.5914 22.9971 17.9226 22.9441 18.2405C22.8912 18.5585 22.9176 18.8499 23.0236 19.1149C23.474 19.1679 23.9112 19.148 24.3351 19.0553C24.759 18.9625 25.1697 18.8433 25.5671 18.6976C25.9646 18.5518 26.3686 18.3995 26.7793 18.2405C27.1899 18.0816 27.6205 17.9623 28.0709 17.8829C28.7862 17.7504 29.495 17.6908 30.1971 17.704C30.8992 17.7173 31.5351 17.8166 32.1047 18.0021C32.6744 18.1875 33.1446 18.4724 33.5156 18.8565C33.8865 19.2407 34.1117 19.7375 34.1912 20.3469C34.2442 20.7178 34.2177 21.0622 34.1117 21.3802C34.0057 21.6981 33.8931 21.9962 33.7739 22.2744C33.6547 22.5526 33.5619 22.8374 33.4957 23.1288C33.4295 23.4203 33.4493 23.725 33.5553 24.0429C33.6348 24.2284 33.8269 24.4006 34.1316 24.5595C34.4363 24.7185 34.7873 24.8775 35.1847 25.0365C35.5822 25.1954 35.9995 25.3676 36.4366 25.5531C36.8738 25.7386 37.2513 25.9505 37.5693 26.189V26.189ZM27.5542 38.5488C28.2431 38.1249 28.9386 37.542 29.6407 36.8002C30.3428 36.0583 30.9125 35.2303 31.3496 34.3163C31.7868 33.4022 32.0319 32.4219 32.0848 31.3753C32.1378 30.3288 31.8729 29.2756 31.29 28.2158C30.7866 27.3415 30.1706 26.5996 29.442 25.9903C28.7134 25.3809 27.8987 24.8974 26.9978 24.5397C26.097 24.182 25.1366 23.9237 24.1165 23.7647C23.0965 23.6057 22.0566 23.5262 20.9968 23.5262C18.9567 23.5262 17.1484 23.7382 15.572 24.1621C13.9955 24.586 12.631 25.1424 11.4785 25.8313C10.326 26.5202 9.39205 27.3018 8.67669 28.1761C7.96133 29.0504 7.45793 29.938 7.16649 30.8388C6.87504 31.7131 6.78894 32.5809 6.90816 33.4419C7.02739 34.303 7.29896 35.1177 7.72288 35.8861C8.14679 36.6544 8.69656 37.3433 9.37218 37.9527C10.0478 38.5621 10.7963 39.0522 11.6176 39.4231C13.1278 40.0855 14.6711 40.5028 16.2476 40.675C17.824 40.8472 19.3276 40.8539 20.7583 40.6949C22.189 40.5359 23.4939 40.2577 24.6729 39.8603C25.8519 39.4629 26.8124 39.0257 27.5542 38.5488V38.5488ZM22.348 25.9903C22.8779 26.2022 23.3813 26.4407 23.8582 26.7056C24.3351 26.9706 24.759 27.3283 25.13 27.7787C25.3949 28.0966 25.6267 28.494 25.8255 28.9709C26.0242 29.4478 26.1633 29.9579 26.2427 30.501C26.3222 31.0442 26.3421 31.5939 26.3024 32.1503C26.2626 32.7067 26.1368 33.2101 25.9248 33.6605C25.7128 34.1374 25.4545 34.621 25.1498 35.1111C24.8451 35.6013 24.4742 36.0583 24.0371 36.4822C23.5999 36.9061 23.0766 37.2837 22.4672 37.6149C21.8579 37.9461 21.116 38.1911 20.2417 38.3501C18.652 38.6415 17.1285 38.4958 15.6713 37.9129C14.2141 37.33 13.0748 36.363 12.2535 35.0117C11.9356 33.9785 11.7633 33.0644 11.7368 32.2695C11.7103 31.4747 11.9223 30.6136 12.3727 29.6863C12.7171 28.9709 13.2404 28.3019 13.9425 27.6793C14.6446 27.0567 15.4527 26.5533 16.3668 26.1691C17.2809 25.7849 18.2546 25.5597 19.2879 25.4935C20.3212 25.4273 21.3412 25.5928 22.348 25.9903ZM16.029 35.7669C17.0093 35.8463 17.7578 35.6079 18.2744 35.0515C18.7911 34.4951 19.0693 33.8725 19.109 33.1836C19.1488 32.4947 18.9501 31.8787 18.5129 31.3356C18.0757 30.7925 17.3935 30.5739 16.4662 30.6798C15.7508 30.7593 15.1944 31.064 14.797 31.5939C14.3996 32.1238 14.1744 32.6868 14.1214 33.283C14.0684 33.8791 14.1942 34.4289 14.4989 34.9323C14.8036 35.4357 15.3136 35.7139 16.029 35.7669ZM32.2836 6.31787C34.2177 6.31787 36.026 6.5762 37.7084 7.09284C39.3908 7.60949 40.8613 8.35797 42.1198 9.33828C43.3783 10.3186 44.3652 11.5109 45.0806 12.9151C45.7959 14.3193 46.1536 15.909 46.1536 17.6841C46.1536 18.5585 45.9416 19.2142 45.5177 19.6514C45.0938 20.0885 44.6368 20.3138 44.1466 20.327C43.6565 20.3402 43.1994 20.1548 42.7755 19.7706C42.3516 19.3864 42.1396 18.7969 42.1396 18.0021C42.1396 16.9423 41.8482 15.9355 41.2653 14.9817C40.6824 14.0279 39.9141 13.1933 38.9603 12.4779C38.0064 11.7626 36.9135 11.1995 35.6815 10.7889C34.4495 10.3782 33.1976 10.1729 31.9259 10.1729C31.1045 10.1729 30.4952 9.97415 30.0977 9.57673C29.7003 9.17931 29.5149 8.73552 29.5413 8.24537C29.5678 7.75521 29.8129 7.31143 30.2766 6.914C30.7402 6.51658 31.4092 6.31787 32.2836 6.31787V6.31787ZM32.2836 12.6766C34.7476 12.6766 36.6155 13.3059 37.8872 14.5644C39.159 15.8229 39.7948 17.7239 39.7948 20.2674C39.7948 21.0622 39.6624 21.6252 39.3974 21.9564C39.1325 22.2876 38.841 22.4333 38.5231 22.3936C38.2051 22.3539 37.9137 22.1618 37.6488 21.8173C37.3838 21.4729 37.2513 21.0092 37.2513 20.4264C37.2513 18.8632 36.8009 17.6179 35.9001 16.6906C34.9993 15.7633 33.7938 15.2996 32.2836 15.2996C31.7802 15.2996 31.4092 15.1605 31.1708 14.8823C30.9323 14.6041 30.8131 14.3061 30.8131 13.9881C30.8131 13.6702 30.9389 13.3721 31.1907 13.0939C31.4424 12.8157 31.8067 12.6766 32.2836 12.6766V12.6766Z" fill="black"/>
</svg>
