<svg width="48" height="49" viewBox="0 0 48 49" fill="none" xmlns="http://www.w3.org/2000/svg">
<g clip-path="url(#clip0_4986_159626)">
<path d="M32.4944 16.1478C33.0451 16.1478 33.59 16.1882 34.1305 16.2483C32.6605 9.40355 25.3422 4.31799 16.9889 4.31799C7.64999 4.31799 0 10.6834 0 18.7662C0 23.4318 2.54514 27.2632 6.79813 30.2349L5.0989 35.3454L11.0379 32.3673C13.163 32.7879 14.8681 33.2204 16.9888 33.2204C17.5219 33.2204 18.0505 33.1941 18.5748 33.1529C18.2428 32.0171 18.0505 30.8275 18.0505 29.5931C18.0506 22.1711 24.4243 16.1478 32.4943 16.1478L32.4944 16.1478ZM23.3598 11.5417C24.639 11.5417 25.4865 12.3832 25.4865 13.6616C25.4865 14.9348 24.6391 15.788 23.3598 15.788C22.0865 15.788 20.8088 14.9348 20.8088 13.6616C20.8088 12.3832 22.0864 11.5417 23.3598 11.5417ZM11.4699 15.788C10.1967 15.788 8.91165 14.9348 8.91165 13.6616C8.91165 12.3832 10.1967 11.5417 11.4699 11.5417C12.7431 11.5417 13.5906 12.3832 13.5906 13.6616C13.5906 14.9348 12.7432 15.788 11.4699 15.788ZM48 29.3889C48 22.5969 41.2032 17.0605 33.5695 17.0605C25.4863 17.0605 19.12 22.5968 19.12 29.3889C19.12 36.1926 25.4864 41.7173 33.5695 41.7173C35.2614 41.7173 36.9678 41.2907 38.6669 40.8649L43.3267 43.4165L42.0491 39.171C45.4592 36.6127 47.9999 33.2203 47.9999 29.3889H48ZM28.8846 27.2632C28.0387 27.2632 27.1854 26.4216 27.1854 25.5633C27.1854 24.7169 28.0387 23.8643 28.8846 23.8643C30.1696 23.8643 31.0113 24.7168 31.0113 25.5633C31.0113 26.4217 30.1696 27.2632 28.8846 27.2632ZM38.2294 27.2632C37.3893 27.2632 36.5419 26.4216 36.5419 25.5633C36.5419 24.7169 37.3893 23.8643 38.2294 23.8643C39.5027 23.8643 40.3559 24.7168 40.3559 25.5633C40.3559 26.4217 39.5027 27.2632 38.2294 27.2632Z" fill="black"/>
</g>
<defs>
<clipPath id="clip0_4986_159626">
<rect width="48" height="48" fill="white" transform="translate(0 0.317871)"/>
</clipPath>
</defs>
</svg>
