<svg width="49" height="49" viewBox="0 0 49 49" fill="none" xmlns="http://www.w3.org/2000/svg">
<g clip-path="url(#clip0_4986_159692)">
<path d="M16.031 23.0502L14.1205 36.467C13.9917 37.4115 13.591 38.1915 12.9183 38.7926C12.2457 39.3936 11.4872 39.7013 10.6428 39.7013H0.360194L3.35125 35.1432H7.02209L8.0525 27.7013H0.166992L2.85751 14.2344H10.1563L10.743 10.0698H3.45143L4.08828 5.41867H18.4353L16.5749 18.8856H8.68935L7.70903 23.0502H16.031V23.0502ZM48.167 35.2577C48.167 39.9947 44.3173 43.8444 39.5802 43.8444C34.8432 43.8444 30.9935 39.9947 30.9935 35.2577C30.9935 30.5206 34.8432 26.6709 39.5802 26.6709C44.3173 26.6709 48.167 30.5206 48.167 35.2577ZM45.6053 32.6888L43.5802 30.6638L38.1491 36.0949L35.5802 33.526L33.5552 35.551L38.1419 40.1378L45.6053 32.6888ZM28.8468 35.2577C28.8468 36.8462 29.1974 38.3417 29.8199 39.7013H23.0865L23.9165 33.6262H15.4013L16.0382 29.2684H24.5606L24.8539 27.0144H16.6679L19.2153 9.1396H22.2493L21.8128 4.68164H29.0614L29.5051 9.1396H32.6393L34.0561 5.71205L33.226 4.68164H41.5981L39.6375 9.1396H42.4783L40.2815 24.56C40.0453 24.5457 39.8164 24.5242 39.5802 24.5242C36.9684 24.5242 34.5713 25.4616 32.7108 27.0144H31.9022L31.7877 27.8945C29.9702 29.8194 28.8468 32.4026 28.8468 35.2577ZM33.4693 15.9947H35.0364L35.43 13.2541H33.8128L33.4693 15.9947ZM32.489 22.7496H34.0561L34.4496 19.8587H32.9326L32.489 22.7496ZM25.8772 19.8659H24.1598L23.7663 22.7568H25.4335L25.8772 19.8659ZM26.7573 13.2541H25.1402L24.7466 15.9947H26.4139L26.7573 13.2541Z" fill="#333333"/>
</g>
<defs>
<clipPath id="clip0_4986_159692">
<rect width="48" height="48" fill="white" transform="translate(0.166992 0.317871)"/>
</clipPath>
</defs>
</svg>
