<svg width="48" height="49" viewBox="0 0 48 49" fill="none" xmlns="http://www.w3.org/2000/svg">
<path fill-rule="evenodd" clip-rule="evenodd" d="M19.289 2.31787C18.5586 2.31787 17.8863 2.71603 17.5352 3.3565L14.8156 8.31787H9H4C2.89543 8.31787 2 9.2133 2 10.3179C2 11.4224 2.89543 12.3179 4 12.3179H7V44.3179C7 45.4224 7.89543 46.3179 9 46.3179H39C40.1046 46.3179 41 45.4224 41 44.3179V12.3179H44C45.1046 12.3179 46 11.4224 46 10.3179C46 9.2133 45.1046 8.31787 44 8.31787H39H33.196L30.539 3.37146C30.1905 2.72265 29.5136 2.31787 28.7771 2.31787H19.289ZM28.6554 8.31787L27.5811 6.31787H20.4734L19.3771 8.31787H28.6554ZM16 12.3179H11V42.3179H37V12.3179H32H16ZM20 18.3179C21.1046 18.3179 22 19.2133 22 20.3179V33.3179C22 34.4224 21.1046 35.3179 20 35.3179C18.8954 35.3179 18 34.4224 18 33.3179V20.3179C18 19.2133 18.8954 18.3179 20 18.3179ZM30 20.3179C30 19.2133 29.1046 18.3179 28 18.3179C26.8954 18.3179 26 19.2133 26 20.3179V33.3179C26 34.4224 26.8954 35.3179 28 35.3179C29.1046 35.3179 30 34.4224 30 33.3179V20.3179Z" fill="#333333"/>
</svg>
