<svg width="48" height="49" viewBox="0 0 48 49" fill="none" xmlns="http://www.w3.org/2000/svg">
<path d="M15.864 23.0502L13.9535 36.467C13.8247 37.4115 13.424 38.1915 12.7513 38.7926C12.0787 39.3936 11.3202 39.7013 10.4758 39.7013H0.1932L3.18426 35.1432H6.8551L7.88551 27.7013H0L2.69052 14.2344H9.98927L10.576 10.0698H3.27728L3.91413 5.41867H18.2612L16.4007 18.8856H8.51521L7.53488 23.0502H15.864V23.0502ZM28.6798 35.2577C28.6798 36.8462 29.0304 38.3417 29.653 39.7013H22.9195L23.7496 33.6262H15.2272L15.864 29.2684H24.3864L24.6798 27.0144H16.5009L19.0483 9.1396H22.0823L21.6458 4.68164H28.8945L29.3381 9.1396H32.4723L33.8891 5.71205L33.059 4.68164H41.4311L39.4705 9.1396H42.3113L40.1145 24.56C39.8784 24.5457 39.6494 24.5242 39.4132 24.5242C36.8014 24.5242 34.4043 25.4616 32.5438 27.0144H31.7352L31.6208 27.8945C29.8032 29.8194 28.6798 32.4026 28.6798 35.2577ZM33.3023 15.9947H34.8694L35.263 13.2541H33.6458L33.3023 15.9947ZM32.322 22.7496H33.8891L34.2826 19.8587H32.7656L32.322 22.7496ZM25.7102 19.8659H23.9928L23.5993 22.7568H25.2665L25.7102 19.8659ZM26.5903 13.2541H24.9732L24.5796 15.9947H26.2469L26.5903 13.2541ZM48 35.2577C48 39.9947 44.1503 43.8444 39.4132 43.8444C34.6762 43.8444 30.8265 39.9947 30.8265 35.2577C30.8265 30.5206 34.6762 26.6709 39.4132 26.6709C44.1503 26.6709 48 30.5206 48 35.2577ZM40.5224 39.4008L35.2701 34.1485C35.1771 34.4992 35.1199 34.8713 35.1199 35.2577C35.1199 37.6262 37.0447 39.551 39.4132 39.551C39.7996 39.551 40.1717 39.4938 40.5224 39.4008ZM43.7066 35.2577C43.7066 32.8892 41.7818 30.9643 39.4132 30.9643C39.0268 30.9643 38.6619 31.0215 38.3041 31.1146L43.5563 36.3668C43.6565 36.009 43.7066 35.6441 43.7066 35.2577Z" fill="#333333"/>
</svg>
