<svg width="25" height="25" viewBox="0 0 25 25" fill="none" xmlns="http://www.w3.org/2000/svg">
<path fill-rule="evenodd" clip-rule="evenodd" d="M3.5 12C4.32843 12 5 12.6716 5 13.5V20H11.5C12.3284 20 13 20.6716 13 21.5C13 22.3284 12.3284 23 11.5 23H3.5C2.67157 23 2 22.3284 2 21.5V13.5C2 12.6716 2.67157 12 3.5 12Z" fill="white"/>
<path fill-rule="evenodd" clip-rule="evenodd" d="M12 3.5C12 2.67157 12.6716 2 13.5 2H21.5C22.3284 2 23 2.67157 23 3.5V11.5C23 12.3284 22.3284 13 21.5 13C20.6716 13 20 12.3284 20 11.5V5H13.5C12.6716 5 12 4.32843 12 3.5Z" fill="white"/>
</svg>
