<svg width="48" height="49" viewBox="0 0 48 49" fill="none" xmlns="http://www.w3.org/2000/svg">
<path d="M46.3666 18.4033L32.1539 15.7726C31.9068 15.7258 31.6912 15.57 31.5703 15.3467L24.7123 2.7178C24.5678 2.45291 24.2839 2.32047 24 2.31787C23.7161 2.32047 23.4322 2.45291 23.2877 2.7178L16.4297 15.3493C16.3088 15.5726 16.0932 15.7284 15.8461 15.7752L1.63342 18.4033C1.02622 18.5149 0.789648 19.2629 1.21811 19.7095L11.5563 30.4037C11.7403 30.5933 11.8244 30.8582 11.785 31.1178L9.4219 45.4217C9.32727 46.0372 9.9555 46.5073 10.5154 46.2424L23.6399 39.9734C23.7529 39.9214 23.8738 39.8929 24 39.8929C24.1235 39.8929 24.2471 39.9189 24.3601 39.9734L37.4846 46.2424C38.0445 46.5073 38.6727 46.0372 38.5781 45.4217L36.4805 32.7228C38.0498 32.2787 39.4166 31.806 40.5311 31.3464L40.7493 31.2555L40.681 31.0296C40.6731 31.0062 40.4996 30.466 39.7294 30.5413C39.046 30.6063 37.8447 30.6556 36.3648 30.6426L46.7819 19.7017C47.2104 19.2655 46.9738 18.5149 46.3666 18.4033ZM39.7794 31.0633C39.8056 31.0607 39.8319 31.0607 39.8556 31.0581C35.1925 32.8786 26.6812 34.8003 17.2446 34.4809C15.9329 34.4367 14.6475 34.2913 13.9562 34.1666C13.7091 34.1225 13.5356 33.9797 13.4804 33.7797C13.4279 33.5875 13.4962 33.3798 13.6487 33.2525C15.373 31.8164 19.626 28.6689 26.2921 23.8984C26.6601 23.6361 26.8757 23.4803 26.8993 23.4621C27.0544 23.3426 27.1412 23.1816 27.1438 23.0102C27.1464 22.844 27.0728 22.6882 26.9335 22.5687C26.7364 22.3999 23.5242 21.2235 18.2539 21.2235C16.5559 21.2235 14.6423 21.3456 12.5499 21.665C12.3817 21.6884 12.266 21.5819 12.2266 21.4651C12.2029 21.3923 12.1872 21.2547 12.3607 21.1638C14.8867 19.8368 20.2569 18.45 25.3169 18.45C25.3905 18.45 25.4641 18.45 25.5377 18.45C29.4596 18.4812 32.6612 19.6472 33.5049 20.2653C33.6495 20.3717 33.7231 20.4782 33.7257 20.5873C33.731 20.7145 33.639 20.8626 33.4708 21.0028C32.1854 22.0831 29.4412 24.0438 27.0202 25.776C25.5929 26.7966 24.2471 27.76 23.469 28.3521C23.2877 28.4898 23.2009 28.6871 23.2298 28.8897C23.2614 29.1 23.4191 29.2844 23.6425 29.3675C28.7866 31.3152 37.3926 31.2918 39.7794 31.0633Z" fill="black"/>
</svg>
