<svg width="48" height="49" viewBox="0 0 48 49" fill="none" xmlns="http://www.w3.org/2000/svg">
<path d="M31.2401 23.88C30.4601 24.66 30.4601 25.93 31.2401 26.71C31.6301 27.1 32.1401 27.3 32.6501 27.3C33.1601 27.3 33.6701 27.1 34.0601 26.71L42.0001 18.77C43.6801 17.1 44.5801 14.86 44.5501 12.47C44.5201 10.1 43.5701 7.86003 41.8801 6.17003C38.3701 2.66003 32.7201 2.60003 29.2801 6.04003L20.1401 15.18C16.7001 18.62 16.7601 24.27 20.2701 27.78C20.6601 28.17 21.1701 28.37 21.6801 28.37C22.1901 28.37 22.7001 28.17 23.0901 27.78C23.8701 27 23.8701 25.73 23.0901 24.95C21.1401 23 21.0801 19.89 22.9601 18.01L32.1001 8.87003C33.9801 6.99003 37.1001 7.05003 39.0501 9.00003C40.0001 9.95003 40.5301 11.2 40.5501 12.52C40.5701 13.82 40.0801 15.03 39.1801 15.94L31.2401 23.88ZM5.54006 29.75L13.4801 21.81C14.2601 21.03 15.5301 21.03 16.3101 21.81C17.0901 22.59 17.0901 23.86 16.3101 24.64L8.37006 32.58C7.47006 33.48 6.98006 34.69 7.00006 36C7.02006 37.32 7.55006 38.57 8.50006 39.52C10.4501 41.47 13.5601 41.53 15.4401 39.65L24.5801 30.51C24.6001 30.49 24.6301 30.47 24.6501 30.45C24.6701 30.43 24.6901 30.4 24.7101 30.38C25.6101 29.48 26.1001 28.26 26.0801 26.96C26.0601 25.64 25.5301 24.39 24.5801 23.44C23.8001 22.66 23.8001 21.39 24.5801 20.61C25.3601 19.83 26.6301 19.83 27.4101 20.61C29.1001 22.3 30.0501 24.54 30.0801 26.91C30.1101 29.3 29.2101 31.54 27.5401 33.21C27.5201 33.23 27.4901 33.25 27.4701 33.27C27.4501 33.29 27.4301 33.32 27.4101 33.34L18.2701 42.48C16.5801 44.18 14.3401 45.02 12.0901 45.02C9.78006 45.02 7.45006 44.13 5.67006 42.35C3.98006 40.66 3.03006 38.42 3.00006 36.05C2.96006 33.65 3.87006 31.42 5.54006 29.75Z" fill="#333333"/>
</svg>
