<svg width="31" height="31" viewBox="0 0 31 31" fill="none" xmlns="http://www.w3.org/2000/svg">
<path d="M0.505877 14.0583C0.426937 13.1399 1.15318 12.3419 2.08467 12.3419H5.08438C5.95271 12.3419 6.66317 13.0495 6.66317 13.9228V28.9191C6.66317 29.7923 5.95271 30.5 5.08438 30.5H3.37928C2.55831 30.5 1.87943 29.8676 1.81627 29.0546L0.505877 14.0583ZM9.78918 13.4259C9.78918 12.7634 10.1997 12.1762 10.7838 11.8902C12.0784 11.2728 14.2887 10.0382 15.2834 8.382C16.5622 6.22892 16.8148 2.34434 16.8464 1.45601C16.8464 1.33556 16.8464 1.20005 16.8622 1.0796C17.0674 -0.456166 20.0355 1.33556 21.1723 3.24773C21.788 4.28663 21.8669 5.64172 21.8038 6.69567C21.7406 7.82491 21.4091 8.92403 21.0775 10.0081L20.3987 12.3268H28.9242C29.9662 12.3268 30.724 13.3205 30.4398 14.3293L26.2244 29.3406C26.035 30.0182 25.4192 30.4849 24.7088 30.4849H11.3522C10.4838 30.4849 9.77339 29.7773 9.77339 28.904V13.4259H9.78918Z" fill="#999999"/>
</svg>
