<svg width="49" height="31" viewBox="0 0 49 31" fill="none" xmlns="http://www.w3.org/2000/svg">
<path fill-rule="evenodd" clip-rule="evenodd" d="M26.5 7.5C26.5 6.39543 25.6046 5.5 24.5 5.5C23.3954 5.5 22.5 6.39543 22.5 7.5V13.5H16.5C15.3954 13.5 14.5 14.3954 14.5 15.5C14.5 16.6046 15.3954 17.5 16.5 17.5H22.5V23.5C22.5 24.6046 23.3954 25.5 24.5 25.5C25.6046 25.5 26.5 24.6046 26.5 23.5V17.5H32.5C33.6046 17.5 34.5 16.6046 34.5 15.5C34.5 14.3954 33.6046 13.5 32.5 13.5H26.5V7.5Z" fill="white"/>
</svg>
