<svg width="48" height="49" viewBox="0 0 48 49" fill="none" xmlns="http://www.w3.org/2000/svg">
<path fill-rule="evenodd" clip-rule="evenodd" d="M43.8925 6.96507C44.1425 6.23387 43.9489 5.42405 43.3953 4.88496C42.8416 4.34588 42.0269 4.17399 41.3026 4.44346L3.30263 18.5818C2.4625 18.8943 1.93296 19.7277 2.00686 20.6211C2.08075 21.5144 2.74002 22.2495 3.6201 22.4198L22.3693 26.0478L27.0651 44.8037C27.2804 45.6633 28.0357 46.2789 28.9211 46.3162C29.8065 46.3534 30.6109 45.8036 30.8977 44.9651L43.8925 6.96507ZM23.3435 22.1621L11.3751 19.8462L38.7421 9.66403L29.3021 37.2688L26.2169 24.9456L31.0788 20.0836C31.8599 19.3026 31.8599 18.0363 31.0788 17.2552C30.2978 16.4742 29.0314 16.4742 28.2504 17.2552L23.3435 22.1621Z" fill="#333333"/>
</svg>
