<svg width="81" height="81" viewBox="0 0 81 81" fill="none" xmlns="http://www.w3.org/2000/svg">
<path fill-rule="evenodd" clip-rule="evenodd" d="M46.1907 4.62753C45.2374 3.6742 43.8036 3.38902 42.558 3.90496C41.3125 4.42089 40.5003 5.63635 40.5003 6.98455V22.0921C28.7972 22.8649 20.3972 27.7855 14.9857 36.2273C9.25655 45.1649 7.16699 57.6148 7.16699 71.9846C7.16699 73.5824 8.30091 74.9556 9.86997 75.2577C11.4383 75.5598 13.0003 74.7069 13.5944 73.2247L13.5946 73.2241L13.5952 73.2225L13.6084 73.1907C13.6224 73.1569 13.646 73.1007 13.6793 73.0234C13.746 72.8688 13.8514 72.6303 13.9962 72.3199C14.2861 71.6987 14.7326 70.7927 15.3413 69.6971C16.5626 67.4988 18.4151 64.5763 20.936 61.6677C25.4329 56.4788 31.8555 51.5432 40.5003 50.5137V65.3179C40.5003 66.6488 41.292 67.8521 42.5142 68.379C43.7364 68.9058 45.1548 68.6551 46.1224 67.7413L76.1224 39.4079C76.7771 38.7896 77.1538 37.9326 77.1667 37.0322C77.1795 36.1317 76.8275 35.2643 76.1907 34.6275L46.1907 4.62753Z" fill="white"/>
</svg>
