<svg width="41" height="41" viewBox="0 0 41 41" fill="none" xmlns="http://www.w3.org/2000/svg">
<g clip-path="url(#clip0_4986_159613)">
<path d="M13.47 19.8525L11.8779 31.0332C11.7706 31.8203 11.4366 32.4703 10.8761 32.9712C10.3156 33.4721 9.68351 33.7285 8.97988 33.7285H0.411002L2.90355 29.93H5.96258L6.82126 23.7285H0.25L2.4921 12.5061H8.57439L9.06336 9.03557H2.98703L3.51774 5.1596H15.4736L13.9232 16.382H7.35197L6.53503 19.8525H13.47V19.8525ZM40.25 30.0254C40.25 33.973 37.0419 37.1811 33.0944 37.1811C29.1468 37.1811 25.9387 33.973 25.9387 30.0254C25.9387 26.0779 29.1468 22.8698 33.0944 22.8698C37.0419 22.8698 40.25 26.0779 40.25 30.0254ZM38.1152 27.8847L36.4277 26.1972L31.9018 30.7231L29.761 28.5824L28.0735 30.2699L31.8958 34.0922L38.1152 27.8847ZM24.1498 30.0254C24.1498 31.3492 24.442 32.5955 24.9608 33.7285H19.3496L20.0413 28.6659H12.9453L13.476 25.0344H20.578L20.8225 23.156H14.0007L16.1236 8.26038H18.6519L18.2882 4.54541H24.3287L24.6984 8.26038H27.3102L28.4909 5.40409L27.7992 4.54541H34.7759L33.1421 8.26038H35.5094L33.6787 21.1107C33.482 21.0988 33.2911 21.0809 33.0944 21.0809C30.9179 21.0809 28.9202 21.862 27.3699 23.156H26.696L26.6006 23.8895C25.086 25.4935 24.1498 27.6462 24.1498 30.0254ZM28.0019 13.973H29.3078L29.6358 11.6891H28.2882L28.0019 13.973ZM27.185 19.6021H28.4909L28.8189 17.193H27.5547L27.185 19.6021ZM21.6752 17.199H20.244L19.9161 19.608H21.3055L21.6752 17.199ZM22.4086 11.6891H21.061L20.733 13.973H22.1224L22.4086 11.6891Z" fill="#333333"/>
</g>
<defs>
<clipPath id="clip0_4986_159613">
<rect width="40" height="40" fill="white" transform="translate(0.25 0.908936)"/>
</clipPath>
</defs>
</svg>
