<svg width="48" height="49" viewBox="0 0 48 49" fill="none" xmlns="http://www.w3.org/2000/svg">
<path d="M42.36 14.3989L37.86 32.3989C37.64 33.2889 36.84 33.9089 35.92 33.9089H14.81C13.89 33.9089 13.09 33.2889 12.87 32.3989L8.37 14.3989C8.28 14.0389 8.29 13.6789 8.39 13.3389L8.04 11.9089H7C5.9 11.9089 5 11.0089 5 9.90894C5 8.80894 5.9 7.90894 7 7.90894H9.6C10.52 7.90894 11.32 8.52894 11.54 9.42894L12.16 11.9089H40.42C41.04 11.9089 41.62 12.1889 42 12.6789C42.38 13.1689 42.51 13.7989 42.36 14.3989ZM33.5 34.9089C31.57 34.9089 30 36.4789 30 38.4089C30 40.3389 31.57 41.9089 33.5 41.9089C35.43 41.9089 37 40.3389 37 38.4089C37 36.4789 35.43 34.9089 33.5 34.9089ZM17.5 34.9089C15.57 34.9089 14 36.4789 14 38.4089C14 40.3389 15.57 41.9089 17.5 41.9089C19.43 41.9089 21 40.3389 21 38.4089C21 36.4789 19.43 34.9089 17.5 34.9089Z" fill="#FF9922"/>
</svg>
